<svg viewBox="0 0 511 511" xmlns="http://www.w3.org/2000/svg" fill-rule="evenodd" clip-rule="evenodd" stroke-linejoin="round" stroke-miterlimit="1.414"><path d="M269.337 327.006c16.892 24.278 14.634 57.85-7.012 79.507l-86.263 86.243c-24.32 24.327-63.762 24.327-88.083 0L18.24 423.03c-24.32-24.327-24.32-63.762 0-88.09l86.257-86.27c21.65-21.644 55.217-23.9 79.507-7.01L67.432 358.245c-13.517 13.51-13.286 35.642.5 49.453l35.38 35.355c13.805 13.798 35.936 14.048 49.446.512l116.58-116.56zm88.9-259.59c13.523-13.5 35.655-13.275 49.453.51l35.38 35.38c13.786 13.786 14.01 35.943.5 49.442L327 269.318c24.275 16.905 57.86 14.634 79.505-7.01l86.243-86.258c24.328-24.314 24.328-63.75 0-88.076l-69.737-69.74c-24.3-24.313-63.75-24.313-88.073 0l-86.25 86.244c-21.652 21.67-23.903 55.23-7.01 79.507L358.24 67.415zm-21.906 83.41c-5.64-5.626-15.37-5.053-21.73 1.297l-162.46 162.47c-6.353 6.35-6.94 16.08-1.294 21.72l23.84 23.854c5.64 5.64 15.377 5.04 21.734-1.297l162.44-162.46c6.363-6.362 6.95-16.103 1.298-21.73l-23.827-23.854z" fill-rule="nonzero"/></svg>