<svg viewBox="0 0 66 32" xmlns="http://www.w3.org/2000/svg" fill-rule="evenodd" clip-rule="evenodd" stroke-linejoin="round" stroke-miterlimit="1.414"><path d="M60.473 21.293V11.82h-2.877v-1.47h7.63v1.47h-2.878v9.473h-1.875z" fill-rule="nonzero"/><path d="M55.098 10.35h1.86v10.943H55.1z"/><path d="M52.67 21.292l-3.435-5.804 3.435-5.147h1.864L51.1 15.49l3.434 5.804H52.67zm-5.51 0v-10.95h1.687v10.95H47.16zM45.956 16.257v4.52c-1 .39-2.048.67-3.11.67-3.22 0-5.254-2.5-5.254-5.72 0-2.987 2.032-5.597 5.316-5.597 1.016 0 2.032.374 2.657.844l-.61 1.298c-.5-.314-1.282-.578-2-.578-2 0-3.362 1.577-3.362 4.063 0 2.596 1.564 4.127 3.174 4.127.5 0 .923-.062 1.314-.265v-3.363h1.876zM36.567 21.293h-1.362c-1.78-2.516-3.548-5.017-5.314-7.846h-.015v7.846h-1.5V10.35h1.358c1.782 2.502 3.55 4.987 5.3 7.8h.03v-7.8h1.503v10.943z" fill-rule="nonzero"/><path d="M0 31.5V0h21.983v31.5H0zm18.804-3.174V3.172H3.168v25.154h15.636z" fill="#ffd800" fill-rule="nonzero"/></svg>