<svg baseProfile="tiny" xmlns="http://www.w3.org/2000/svg" preserveAspectRatio="xMinYMin meet" viewBox="0 0 1888 118.00000000000001" width="1888" height="118"><path d="M46.602 17.56c-3.842-2.748-8.31-2.42-11.336-1.687a31.403 31.403 0 0 0-.614-3.788c2.014.373 4.645.492 7.027-.566 4.69-2.086 6.633-7.936 6.633-7.936S42.65 1.11 37.96 3.194c-2.13.945-3.69 2.668-4.764 4.267a30.163 30.163 0 0 0-2.34-4.653l-4.247 2.63a25.61 25.61 0 0 1 3.593 10.138 28.16 28.16 0 0 1-.063 7.775l3.826-1.856c.058-.028 5.797-2.76 9.73.052 3.534 2.528 4.627 9.928 2.657 17.994-1.54 6.313-4.725 11.362-7.405 11.745-1.9.27-2.583-.026-3.935-.856-1.065-.656-2.392-1.47-4.402-1.91a6.555 6.555 0 0 0-1.42-.156c-2.026 0-3.694.944-5.085 1.73-1.976 1.12-3.186 1.6-5.102.89-2.733-1.015-6.24-8.582-6.66-16.818-.172-3.348-.006-11.404 5.223-13.98 3.222-1.588 6.446-.567 8.542.527.107-1.917.055-4.11-.2-5.5-2.93-1.01-6.673-1.42-10.55.49C9.8 18.443 6.882 25.26 7.35 34.425c.445 8.68 4.07 19.076 9.913 21.245 4.184 1.552 7.143-.12 9.3-1.342 1.383-.782 2.202-1.215 2.977-1.043 1.186.26 1.96.736 2.86 1.287 1.323.81 2.915 1.787 5.54 1.787.527 0 1.098-.04 1.714-.13 5.934-.847 9.86-8.566 11.555-15.505 1.91-7.835 1.85-18.545-4.61-23.165" fill="#485462"/><g transform="translate(118)"><path d="M46.16 17.56c-3.843-2.748-8.312-2.42-11.337-1.687a31.403 31.403 0 0 0-.614-3.788c2.012.373 4.643.492 7.025-.566 4.693-2.086 6.635-7.936 6.635-7.936s-5.66-2.474-10.353-.39c-2.13.945-3.69 2.668-4.763 4.267a30.163 30.163 0 0 0-2.34-4.653l-4.247 2.63a25.61 25.61 0 0 1 3.594 10.138 28.16 28.16 0 0 1-.06 7.775l3.824-1.856c.058-.028 5.797-2.76 9.73.052 3.534 2.528 4.627 9.928 2.657 17.994-1.54 6.313-4.724 11.362-7.404 11.745-1.9.27-2.583-.026-3.935-.856-1.064-.656-2.39-1.47-4.4-1.91a6.555 6.555 0 0 0-1.423-.156c-2.026 0-3.694.944-5.085 1.73-1.975 1.12-3.185 1.6-5.1.89-2.734-1.015-6.24-8.582-6.662-16.818-.17-3.348-.005-11.404 5.224-13.98 3.222-1.588 6.446-.567 8.542.527.107-1.917.055-4.11-.2-5.5-2.93-1.01-6.673-1.42-10.55.49-5.558 2.737-8.475 9.554-8.006 18.72.444 8.68 4.07 19.076 9.912 21.245 4.184 1.552 7.143-.12 9.3-1.342 1.383-.782 2.202-1.215 2.977-1.043 1.185.26 1.96.736 2.86 1.287 1.322.81 2.914 1.787 5.54 1.787.526 0 1.097-.04 1.713-.128 5.935-.85 9.86-8.568 11.556-15.507 1.908-7.833 1.85-18.543-4.61-23.163" fill="#333"/></g><g transform="translate(236)"><path d="M46.158 17.56c-3.842-2.748-8.31-2.42-11.336-1.687a31.403 31.403 0 0 0-.614-3.788c2.014.373 4.645.492 7.027-.566 4.693-2.086 6.635-7.936 6.635-7.936s-5.662-2.474-10.354-.39c-2.13.945-3.69 2.668-4.763 4.267a30.163 30.163 0 0 0-2.34-4.653l-4.247 2.63a25.61 25.61 0 0 1 3.594 10.138 28.16 28.16 0 0 1-.063 7.775l3.825-1.856c.058-.028 5.797-2.76 9.73.052 3.534 2.528 4.627 9.928 2.657 17.994-1.543 6.313-4.727 11.362-7.407 11.745-1.9.27-2.583-.026-3.935-.856-1.066-.656-2.393-1.47-4.403-1.91a6.555 6.555 0 0 0-1.422-.156c-2.026 0-3.694.944-5.085 1.73-1.976 1.12-3.186 1.6-5.102.89-2.733-1.015-6.24-8.582-6.66-16.818-.172-3.348-.006-11.404 5.223-13.98 3.222-1.588 6.446-.567 8.542.527.107-1.917.055-4.11-.2-5.5-2.93-1.01-6.673-1.42-10.55.49-5.558 2.737-8.475 9.554-8.006 18.72.444 8.68 4.07 19.076 9.912 21.245 4.183 1.552 7.142-.12 9.3-1.342 1.382-.782 2.2-1.215 2.976-1.043 1.186.26 1.96.736 2.86 1.287 1.323.81 2.915 1.787 5.54 1.787.527 0 1.098-.04 1.714-.128 5.934-.85 9.86-8.568 11.555-15.507 1.912-7.836 1.853-18.546-4.607-23.166" fill="#DDD"/></g><g transform="translate(354)"><path d="M46.16 17.56c-3.843-2.748-8.312-2.42-11.337-1.687a31.403 31.403 0 0 0-.614-3.788c2.012.373 4.643.492 7.025-.566 4.693-2.086 6.635-7.936 6.635-7.936s-5.66-2.474-10.353-.39c-2.13.945-3.69 2.668-4.763 4.267a30.163 30.163 0 0 0-2.34-4.653l-4.247 2.63a25.61 25.61 0 0 1 3.594 10.138 28.16 28.16 0 0 1-.06 7.775l3.824-1.856c.058-.028 5.797-2.76 9.73.052 3.534 2.528 4.627 9.928 2.657 17.994-1.54 6.313-4.724 11.362-7.404 11.745-1.9.27-2.583-.026-3.935-.856-1.064-.656-2.39-1.47-4.4-1.91a6.555 6.555 0 0 0-1.423-.156c-2.026 0-3.694.944-5.085 1.73-1.975 1.12-3.185 1.6-5.1.89-2.734-1.015-6.24-8.582-6.662-16.818-.17-3.348-.005-11.404 5.224-13.98 3.222-1.588 6.446-.567 8.542.527.107-1.917.055-4.11-.2-5.5-2.93-1.01-6.673-1.42-10.55.49-5.558 2.737-8.475 9.554-8.006 18.72.444 8.68 4.07 19.076 9.912 21.245 4.184 1.552 7.143-.12 9.3-1.342 1.383-.782 2.202-1.215 2.977-1.043 1.185.26 1.96.736 2.86 1.287 1.322.81 2.914 1.787 5.54 1.787.526 0 1.097-.04 1.713-.128 5.935-.85 9.86-8.568 11.556-15.507 1.908-7.833 1.85-18.543-4.61-23.163" fill="#FFF"/></g><g transform="translate(472)"><path d="M50.362 29.36c0-3.237 2.005-5.796 4.997-7.557a27.52 27.52 0 0 0-2.14-5.173c-3.373.88-6.095-.433-8.397-2.735-2.29-2.29-2.993-5.024-2.113-8.396a27.208 27.208 0 0 0-5.172-2.14c-1.76 3.005-4.93 4.995-8.18 4.995-3.235 0-6.418-1.99-8.178-4.997a27.208 27.208 0 0 0-5.173 2.14c.88 3.37.176 6.093-2.112 8.395-2.29 2.288-5.024 3.615-8.383 2.735A26.456 26.456 0 0 0 3.36 21.8c3.004 1.76 5.01 4.32 5.01 7.557 0 3.236-2.006 6.418-5.01 8.18a27.225 27.225 0 0 0 2.14 5.17c3.37-.88 6.092-.175 8.38 2.114 2.302 2.29 2.993 5.025 2.113 8.397a27.51 27.51 0 0 0 5.172 2.14c1.76-3.007 4.943-4.998 8.18-4.998 3.236 0 6.418 1.99 8.18 4.996a27.167 27.167 0 0 0 5.172-2.14c-.88-3.372-.176-6.094 2.112-8.396 2.29-2.29 5.023-3.616 8.395-2.735a27.983 27.983 0 0 0 2.14-5.174c-2.993-1.76-4.984-4.32-4.984-7.556zM29.36 44.823c-8.528 0-15.465-6.922-15.465-15.465s6.922-15.465 15.464-15.465c8.54 0 15.463 6.922 15.463 15.464 0 8.542-6.922 15.464-15.465 15.464z" fill="#0088CE"/></g><g transform="translate(590)"><path d="M50.363 29.36c0-3.237 2.004-5.796 4.997-7.557a27.59 27.59 0 0 0-2.14-5.173c-3.372.88-6.094-.433-8.396-2.735-2.288-2.29-2.993-5.024-2.112-8.396a27.235 27.235 0 0 0-5.173-2.14c-1.763 3.005-4.93 4.995-8.18 4.995-3.238 0-6.42-1.99-8.18-4.997a27.235 27.235 0 0 0-5.174 2.14c.88 3.37.176 6.093-2.112 8.395-2.29 2.288-5.024 3.615-8.382 2.735A26.334 26.334 0 0 0 3.36 21.8c3.005 1.76 5.01 4.32 5.01 7.557 0 3.236-2.005 6.418-5.01 8.18a27.157 27.157 0 0 0 2.14 5.17c3.37-.88 6.092-.175 8.38 2.114 2.302 2.29 2.993 5.025 2.113 8.397a27.492 27.492 0 0 0 5.173 2.14c1.76-3.007 4.943-4.998 8.18-4.998 3.235 0 6.418 1.99 8.178 4.996a27.14 27.14 0 0 0 5.173-2.14c-.88-3.372-.176-6.094 2.113-8.396 2.29-2.29 5.025-3.616 8.396-2.735a27.914 27.914 0 0 0 2.14-5.174c-2.993-1.76-4.983-4.32-4.983-7.556zM29.36 44.823c-8.527 0-15.465-6.922-15.465-15.465s6.922-15.465 15.465-15.465c8.542 0 15.464 6.922 15.464 15.464 0 8.542-6.922 15.464-15.464 15.464z" fill="#333"/></g><g transform="translate(708)"><path d="M50.362 29.36c0-3.237 2.004-5.796 4.997-7.557a27.523 27.523 0 0 0-2.14-5.173c-3.373.88-6.095-.433-8.397-2.735-2.29-2.29-2.993-5.024-2.113-8.396a27.208 27.208 0 0 0-5.172-2.14c-1.76 3.005-4.93 4.995-8.18 4.995-3.235 0-6.418-1.99-8.178-4.997a27.208 27.208 0 0 0-5.173 2.14c.88 3.37.176 6.093-2.113 8.395-2.288 2.288-5.023 3.615-8.382 2.735A26.395 26.395 0 0 0 3.36 21.8c3.004 1.76 5.01 4.32 5.01 7.557 0 3.236-2.006 6.418-5.01 8.18a27.16 27.16 0 0 0 2.14 5.17c3.37-.88 6.09-.175 8.38 2.114 2.302 2.29 2.993 5.025 2.112 8.397a27.547 27.547 0 0 0 5.173 2.14c1.76-3.007 4.943-4.998 8.18-4.998 3.236 0 6.418 1.99 8.18 4.996a27.167 27.167 0 0 0 5.172-2.14c-.88-3.372-.176-6.094 2.112-8.396 2.29-2.29 5.023-3.616 8.395-2.735a27.91 27.91 0 0 0 2.14-5.174c-2.993-1.76-4.984-4.32-4.984-7.556zM29.36 44.823c-8.528 0-15.466-6.922-15.466-15.465s6.923-15.465 15.465-15.465 15.463 6.922 15.463 15.464c0 8.542-6.922 15.464-15.465 15.464z" fill="#DDD"/></g><g transform="translate(826)"><path d="M50.362 29.36c0-3.237 2.004-5.796 4.997-7.557a27.523 27.523 0 0 0-2.14-5.173c-3.373.88-6.095-.433-8.397-2.735-2.29-2.29-2.993-5.024-2.113-8.396a27.208 27.208 0 0 0-5.172-2.14c-1.76 3.005-4.93 4.995-8.18 4.995-3.235 0-6.418-1.99-8.178-4.997a27.208 27.208 0 0 0-5.173 2.14c.88 3.37.176 6.093-2.113 8.395-2.288 2.288-5.023 3.615-8.382 2.735A26.395 26.395 0 0 0 3.36 21.8c3.004 1.76 5.01 4.32 5.01 7.557 0 3.236-2.006 6.418-5.01 8.18a27.16 27.16 0 0 0 2.14 5.17c3.37-.88 6.09-.175 8.38 2.114 2.302 2.29 2.993 5.025 2.112 8.397a27.547 27.547 0 0 0 5.173 2.14c1.76-3.007 4.943-4.998 8.18-4.998 3.236 0 6.418 1.99 8.18 4.996a27.167 27.167 0 0 0 5.172-2.14c-.88-3.372-.176-6.094 2.112-8.396 2.29-2.29 5.023-3.616 8.395-2.735a27.91 27.91 0 0 0 2.14-5.174c-2.993-1.76-4.984-4.32-4.984-7.556zM29.36 44.823c-8.528 0-15.466-6.922-15.466-15.465s6.923-15.465 15.465-15.465 15.463 6.922 15.463 15.464c0 8.542-6.922 15.464-15.465 15.464z" fill="#FFF"/></g><g transform="translate(944)"><g fill="#52BEDA"><path d="M.206 48.33c.703-7.284 6.737-11.462 16.727-11.462 1.647 0 3.177.124 4.607.347a14.913 14.913 0 0 0-2.135 4.655 29.65 29.65 0 0 0-2.472-.1c-7.417 0-11.506 2.336-11.947 6.906l-.178 2.184H0zm40.26-15.472c14.715 0 17.855 7.603 18.302 12.17l.117 5.832h-4.75l-.147-5.482c-.494-5.056-5.31-7.62-13.52-7.62-8.214 0-13.03 2.565-13.52 7.583l-.13 5.52h-4.822l.17-5.867c.444-4.53 3.585-12.134 18.3-12.134M16.983 17.64c-1.22 0-5.2.35-5.2 4.87 0 3.806 2.187 6.57 5.2 6.57 3.013 0 5.2-2.764 5.2-6.57 0-4.52-3.98-4.87-5.2-4.87m0 16.22c-5.7 0-10-4.867-10-11.32 0-5.7 4.112-9.68 10-9.68s10 3.98 10 9.68c0 6.453-4.3 11.32-10 11.32m23.5-21.24c-2.136 0-5.72.692-5.72 5.334 0 4.14 2.406 7.145 5.72 7.145 3.315 0 5.72-3.006 5.72-7.146 0-4.642-3.583-5.335-5.72-5.335m0 17.24c-5.986 0-10.5-5.104-10.5-11.87 0-6.06 4.22-10.13 10.5-10.13s10.5 4.07 10.5 10.13c0 6.766-4.514 11.87-10.5 11.87"/></g></g><g transform="translate(1062)"><g fill="#333"><path d="M.206 48.33c.703-7.284 6.737-11.462 16.727-11.462 1.647 0 3.177.124 4.607.347a14.913 14.913 0 0 0-2.135 4.655 29.65 29.65 0 0 0-2.472-.1c-7.417 0-11.506 2.336-11.947 6.906l-.178 2.184H0zm40.26-15.472c14.715 0 17.855 7.603 18.302 12.17l.117 5.832h-4.75l-.147-5.482c-.494-5.056-5.31-7.62-13.52-7.62-8.214 0-13.03 2.565-13.52 7.583l-.13 5.52h-4.822l.17-5.867c.444-4.53 3.585-12.134 18.3-12.134M16.983 17.64c-1.22 0-5.2.35-5.2 4.87 0 3.806 2.187 6.57 5.2 6.57 3.013 0 5.2-2.764 5.2-6.57 0-4.52-3.98-4.87-5.2-4.87m0 16.22c-5.7 0-10-4.867-10-11.32 0-5.7 4.112-9.68 10-9.68s10 3.98 10 9.68c0 6.453-4.3 11.32-10 11.32m23.5-21.24c-2.136 0-5.72.692-5.72 5.334 0 4.14 2.406 7.145 5.72 7.145 3.315 0 5.72-3.006 5.72-7.146 0-4.642-3.583-5.335-5.72-5.335m0 17.24c-5.986 0-10.5-5.104-10.5-11.87 0-6.06 4.22-10.13 10.5-10.13s10.5 4.07 10.5 10.13c0 6.766-4.514 11.87-10.5 11.87"/></g></g><g transform="translate(1180)"><g fill="#DDD"><path d="M.206 48.33c.703-7.284 6.737-11.462 16.728-11.462 1.646 0 3.176.124 4.607.347a14.937 14.937 0 0 0-2.134 4.655c-.777-.065-1.6-.1-2.47-.1-7.42 0-11.507 2.336-11.95 6.906L4.81 50.86H0zm40.262-15.472c14.713 0 17.853 7.603 18.3 12.17l.118 5.832h-4.75l-.147-5.482c-.497-5.056-5.31-7.62-13.523-7.62-8.214 0-13.03 2.565-13.52 7.583l-.13 5.52h-4.82l.17-5.867c.442-4.53 3.584-12.134 18.3-12.134M16.983 17.64c-1.22 0-5.2.35-5.2 4.87 0 3.806 2.187 6.57 5.2 6.57 3.013 0 5.2-2.764 5.2-6.57 0-4.52-3.98-4.87-5.2-4.87m0 16.22c-5.7 0-10-4.867-10-11.32 0-5.7 4.112-9.68 10-9.68s10 3.98 10 9.68c0 6.453-4.3 11.32-10 11.32m23.5-21.24c-2.136 0-5.72.692-5.72 5.334 0 4.14 2.406 7.145 5.72 7.145 3.315 0 5.72-3.006 5.72-7.146 0-4.642-3.583-5.335-5.72-5.335m0 17.24c-5.986 0-10.5-5.104-10.5-11.87 0-6.06 4.22-10.13 10.5-10.13s10.5 4.07 10.5 10.13c0 6.766-4.514 11.87-10.5 11.87"/></g></g><g transform="translate(1298)"><g fill="#FFF"><path d="M.206 48.33c.703-7.284 6.737-11.462 16.727-11.462 1.647 0 3.177.124 4.607.347a14.913 14.913 0 0 0-2.135 4.655 29.65 29.65 0 0 0-2.472-.1c-7.417 0-11.506 2.336-11.947 6.906l-.178 2.184H0zm40.26-15.472c14.715 0 17.855 7.603 18.302 12.17l.117 5.832h-4.75l-.147-5.482c-.494-5.056-5.31-7.62-13.52-7.62-8.214 0-13.03 2.565-13.52 7.583l-.13 5.52h-4.822l.17-5.867c.444-4.53 3.585-12.134 18.3-12.134M16.983 17.64c-1.22 0-5.2.35-5.2 4.87 0 3.806 2.187 6.57 5.2 6.57 3.013 0 5.2-2.764 5.2-6.57 0-4.52-3.98-4.87-5.2-4.87m0 16.22c-5.7 0-10-4.867-10-11.32 0-5.7 4.112-9.68 10-9.68s10 3.98 10 9.68c0 6.453-4.3 11.32-10 11.32m23.5-21.24c-2.136 0-5.72.692-5.72 5.334 0 4.14 2.406 7.145 5.72 7.145 3.315 0 5.72-3.006 5.72-7.146 0-4.642-3.583-5.335-5.72-5.335m0 17.24c-5.986 0-10.5-5.104-10.5-11.87 0-6.06 4.22-10.13 10.5-10.13s10.5 4.07 10.5 10.13c0 6.766-4.514 11.87-10.5 11.87"/></g></g><g transform="translate(1416)"><g fill="#4AA504"><path d="M51.533 16.376l-2.476 2.475-9.192-9.19 2.475-2.474c.28-.28.657-.435 1.06-.435.404 0 .78.155 1.062.436l7.07 7.07c.28.28.436.657.436 1.06 0 .405-.155.78-.435 1.06m3.535-5.656l-7.07-7.07a6.456 6.456 0 0 0-4.598-1.9 6.46 6.46 0 0 0-4.596 1.898l-6.01 6.01 16.263 16.264 6.01-6.01a6.453 6.453 0 0 0 1.9-4.596 6.457 6.457 0 0 0-1.9-4.597m-31.5 33.623l-10.29 3.465-2.37-2.37 3.467-10.288 19.13-19.13-3.537-3.535-19.96 19.958L1.75 56.967l24.522-8.26L46.23 28.75l-3.536-3.535zm-5.437-3.757a2.493 2.493 0 0 0 1.767.732c.64 0 1.28-.244 1.767-.732l18.2-18.2-3.534-3.535-18.2 18.2a2.49 2.49 0 0 0-.733 1.77c0 .64.244 1.28.732 1.767"/></g></g><g transform="translate(1534)"><g fill="#333"><path d="M51.534 16.376l-2.476 2.475-9.192-9.19 2.475-2.474c.28-.28.66-.435 1.06-.435.406 0 .783.155 1.064.436l7.07 7.07c.28.28.436.657.436 1.06 0 .405-.156.78-.436 1.06m3.535-5.656l-7.073-7.07a6.456 6.456 0 0 0-4.597-1.9 6.46 6.46 0 0 0-4.595 1.898l-6.01 6.01 16.263 16.264 6.01-6.01a6.453 6.453 0 0 0 1.9-4.596 6.457 6.457 0 0 0-1.9-4.597m-31.5 33.623l-10.29 3.465-2.37-2.37 3.467-10.288 19.13-19.13-3.537-3.535-19.96 19.958-8.256 24.522 24.523-8.26L46.23 28.75l-3.535-3.535zm-5.438-3.757a2.493 2.493 0 0 0 1.768.732c.64 0 1.28-.244 1.767-.732l18.2-18.2-3.534-3.535-18.2 18.2a2.49 2.49 0 0 0-.73 1.77c0 .64.243 1.28.73 1.767"/></g></g><g transform="translate(1652)"><g fill="#DDD"><path d="M51.533 16.376l-2.476 2.475-9.192-9.19 2.475-2.474c.28-.28.657-.435 1.06-.435.404 0 .78.155 1.062.436l7.07 7.07c.28.28.436.657.436 1.06 0 .405-.155.78-.435 1.06m3.535-5.656l-7.07-7.07a6.456 6.456 0 0 0-4.598-1.9 6.46 6.46 0 0 0-4.596 1.898l-6.01 6.01 16.263 16.264 6.01-6.01a6.453 6.453 0 0 0 1.9-4.596 6.457 6.457 0 0 0-1.9-4.597m-31.5 33.623l-10.29 3.465-2.37-2.37 3.467-10.288 19.13-19.13-3.537-3.535-19.96 19.958L1.75 56.967l24.522-8.26L46.23 28.75l-3.536-3.535zm-5.437-3.757a2.493 2.493 0 0 0 1.767.732c.64 0 1.28-.244 1.767-.732l18.2-18.2-3.534-3.535-18.2 18.2a2.49 2.49 0 0 0-.733 1.77c0 .64.244 1.28.732 1.767"/></g></g><g transform="translate(1770)"><g fill="#FFF"><path d="M51.533 16.376l-2.476 2.475-9.192-9.19 2.475-2.474c.28-.28.657-.435 1.06-.435.404 0 .78.155 1.062.436l7.07 7.07c.28.28.436.657.436 1.06 0 .405-.155.78-.435 1.06m3.535-5.656l-7.07-7.07a6.456 6.456 0 0 0-4.598-1.9 6.46 6.46 0 0 0-4.596 1.898l-6.01 6.01 16.263 16.264 6.01-6.01a6.453 6.453 0 0 0 1.9-4.596 6.457 6.457 0 0 0-1.9-4.597m-31.5 33.623l-10.29 3.465-2.37-2.37 3.467-10.288 19.13-19.13-3.537-3.535-19.96 19.958L1.75 56.967l24.522-8.26L46.23 28.75l-3.536-3.535zm-5.437-3.757a2.493 2.493 0 0 0 1.767.732c.64 0 1.28-.244 1.767-.732l18.2-18.2-3.534-3.535-18.2 18.2a2.49 2.49 0 0 0-.733 1.77c0 .64.244 1.28.732 1.767"/></g></g></svg>