<svg viewBox="0 0 227 42" xmlns="http://www.w3.org/2000/svg" fill-rule="evenodd" clip-rule="evenodd" stroke-linejoin="round" stroke-miterlimit="1.414"><g fill-rule="nonzero"><path d="M0 41.077V0h28.667v41.077H0zm24.52-4.14v-32.8H4.13v32.8h20.39z" fill="#ffd800"/><path d="M47.684 27.767H45.91c-2.323-3.28-4.628-6.542-6.93-10.232h-.022v10.232H37v-14.27h1.773c2.324 3.262 4.63 6.503 6.912 10.172h.04V13.496h1.958v14.27zM52.33 22.122c.57-1.877 1.14-3.61 1.65-5.81h.042c.57 2.2 1.08 3.933 1.61 5.81H52.33zm.938-8.625l-4.934 14.27h2.12l1.244-3.893h4.3l1.123 3.893h2.732l-4.546-14.27h-2.038zM62.156 27.767V15.414h-3.752v-1.917h9.95v1.917H64.6v12.353h-2.444zM69.146 13.497h2.427v14.27h-2.427zM79.115 25.972c-2.547 0-3.444-2.81-3.444-5.543 0-2.632 1.02-5.14 3.445-5.14s3.445 2.508 3.445 5.14c0 2.73-.897 5.542-3.445 5.542zm0 2.04c3.73 0 6.055-3.323 6.055-7.583 0-3.997-2.568-7.176-6.055-7.176-3.487 0-6.054 3.18-6.054 7.175.002 4.258 2.325 7.58 6.055 7.58zM97.34 27.767h-1.773c-2.324-3.28-4.628-6.542-6.93-10.232h-.022v10.232h-1.957v-14.27h1.773C90.756 16.76 93.06 20 95.34 23.67h.042V13.496h1.957v14.27zM101.987 22.122c.57-1.877 1.142-3.61 1.65-5.81h.042c.57 2.2 1.08 3.933 1.61 5.81h-3.303zm.94-8.625l-4.935 14.27h2.12l1.243-3.893h4.302l1.12 3.893h2.732l-4.548-14.27h-2.036zM110.223 13.497h2.426V25.85h4.83v1.917h-7.257v-14.27z"/><g><path d="M132.928 21.2v5.892c-1.305.51-2.67.876-4.056.876-4.2 0-6.85-3.262-6.85-7.46 0-3.894 2.65-7.298 6.93-7.298 1.326 0 2.65.488 3.466 1.1l-.795 1.693c-.65-.41-1.672-.754-2.61-.754-2.607 0-4.382 2.056-4.382 5.298 0 3.385 2.04 5.382 4.14 5.382.652 0 1.203-.08 1.713-.346V21.2h2.445zM141.674 15.37h-4.078v3.915h3.996V21.2h-3.996v4.607h4.812v1.916h-7.257V13.455h6.524v1.915zM149.216 25.93c-2.548 0-3.445-2.813-3.445-5.544 0-2.63 1.02-5.137 3.446-5.137 2.427 0 3.445 2.505 3.445 5.136 0 2.73-.896 5.544-3.444 5.544zm0 2.038c3.73 0 6.055-3.322 6.055-7.582 0-3.998-2.567-7.176-6.054-7.176-3.485 0-6.054 3.18-6.054 7.176 0 4.26 2.324 7.582 6.054 7.582zM167.013 21.2v5.892c-1.306.51-2.67.876-4.057.876-4.2 0-6.85-3.262-6.85-7.46 0-3.894 2.65-7.298 6.93-7.298 1.326 0 2.65.488 3.466 1.1l-.795 1.693c-.65-.41-1.67-.754-2.608-.754-2.61 0-4.385 2.056-4.385 5.298 0 3.385 2.04 5.382 4.14 5.382.65 0 1.202-.08 1.712-.346V21.2h2.446zM171.7 15.37h1.08c1.448 0 2.265.837 2.265 2.304 0 1.917-1.163 2.772-2.324 2.834-.245.02-.815.04-1.02.06V15.37zm6.197 12.354l-2.874-5.91c1.57-.84 2.467-2.53 2.467-4.242 0-2.773-1.69-4.117-4.423-4.117h-3.813v14.27h2.447V22.34h1.102l2.304 5.382h2.79zM181.935 22.077c.57-1.875 1.14-3.608 1.65-5.81h.042c.57 2.2 1.08 3.935 1.61 5.81h-3.302zm.937-8.622l-4.935 14.27h2.12l1.245-3.895h4.3l1.123 3.894h2.73l-4.546-14.27h-2.038zM194.043 13.455h-3.812v14.27h2.447V22.34h1.1c2.917 0 4.69-2.365 4.69-4.77 0-2.774-1.692-4.117-4.424-4.117zm-.346 7.053c-.25.02-.85.038-1.02.057V15.37h1.1c1.428 0 2.243.837 2.243 2.304 0 1.917-1.162 2.772-2.323 2.834zM209.8 27.724h-2.445v-6.87h-5.075v6.87h-2.427v-14.27h2.427v5.483h5.075v-5.442h2.446v14.23zM212.145 13.455h2.428v14.27h-2.428zM225.578 16.042c-.59-.366-1.57-.794-2.506-.794-2.487 0-4.303 2.057-4.303 5.3 0 3.384 1.997 5.38 4.36 5.38.94 0 1.815-.305 2.447-.713l.674 1.775c-.733.51-2.038.977-3.22.977-4.2 0-6.85-3.262-6.85-7.46 0-3.894 2.63-7.298 6.89-7.298 1.264 0 2.446.53 3.282 1.1l-.774 1.732z"/></g></g></svg>