<svg viewBox="0 0 78 31" xmlns="http://www.w3.org/2000/svg" fill-rule="evenodd" clip-rule="evenodd" stroke-linejoin="round" stroke-miterlimit="1.414"><path d="M0 30.797V0h21.493v30.797H0zm18.38-3.1V3.1H3.098v24.596H18.38z" fill="#ffd520" fill-rule="nonzero"/><path d="M32.4 11.935c-.398-.32-.935-.61-1.47-.61-.76 0-1.173.502-1.173 1.13 0 .703.64 1.237 1.695 2.23 1.222 1.144 1.88 2.046 1.88 3.36 0 1.343-1.1 2.902-3.147 2.902-.946 0-2-.34-2.674-1.07l.66-1.22c.49.41 1.04.85 1.87.85.75 0 1.405-.47 1.405-1.48 0-1.174-1.22-1.955-1.94-2.626-.885-.83-1.62-1.49-1.62-2.91 0-1.433 1.224-2.593 2.87-2.593 1.04 0 1.88.44 2.31.928l-.656 1.12zm1.796 3.33c0-2.995 1.925-5.376 4.536-5.376 2.612 0 4.535 2.38 4.535 5.37 0 3.19-1.742 5.68-4.535 5.68s-4.536-2.49-4.536-5.684zm7.12 0c0-1.97-.766-3.85-2.584-3.85s-2.583 1.88-2.583 3.85c0 2.046.67 4.154 2.58 4.154 1.91-.01 2.58-2.11 2.58-4.16zm9.524-3.255c-.442-.276-1.175-.596-1.88-.596-1.862 0-3.224 1.543-3.224 3.97 0 2.537 1.5 4.034 3.27 4.034.705 0 1.36-.23 1.833-.533l.5 1.327c-.55.383-1.53.735-2.417.735-3.15 0-5.133-2.445-5.133-5.592 0-2.916 1.97-5.466 5.164-5.466.948 0 1.835.39 2.46.82l-.58 1.293zm1.705-1.91h1.816v10.694h-1.81zm8.485 1.407h-3.055v2.932h2.99v1.43h-2.99v3.45h3.602v1.435H56.14V10.07h4.89v1.435zm3.71 9.256l-.002-9.256h-2.81v-1.434h7.453v1.434h-2.81v9.256h-1.83zm7.743 0v-4.475l-2.797-6.216h2.047c.64 1.543 1.266 2.932 1.892 4.778.707-1.846 1.42-3.235 2.126-4.778h1.52l-2.95 6.216v4.475h-1.83z" fill="#231f20" fill-rule="nonzero"/></svg>