<svg viewBox="0 0 224 31" xmlns="http://www.w3.org/2000/svg" fill-rule="evenodd" clip-rule="evenodd" stroke-linejoin="round" stroke-miterlimit="1.414"><path d="M0 30.684V0h21.413v30.684H0zm18.314-3.09V3.09H3.086v24.505h15.228z" fill="#ffd520" fill-rule="nonzero"/><path d="M35.66 20.757h-1.324c-1.736-2.454-3.46-4.89-5.18-7.648h-.015v7.64h-1.46V10.09h1.33c1.74 2.438 3.46 4.86 5.16 7.6h.03v-7.6h1.46v10.663zm3.47-4.22c.427-1.4.852-2.696 1.234-4.342h.032c.424 1.646.804 2.94 1.203 4.342h-2.47zm.703-6.443l-3.69 10.663h1.587l.93-2.91h3.21l.838 2.91h2.042l-3.396-10.663h-1.52zm6.64 10.663v-9.23h-2.806v-1.433H51.1v1.434h-2.803v9.23h-1.825z" fill="#fff" fill-rule="nonzero"/><path fill="#fff" d="M51.694 10.094h1.812v10.663h-1.812z"/><path d="M59.14 19.413c-1.903 0-2.574-2.102-2.574-4.14 0-1.965.763-3.838 2.575-3.838 1.82 0 2.58 1.873 2.58 3.84 0 2.036-.67 4.138-2.57 4.138zm0 1.523c2.786 0 4.52-2.483 4.52-5.66 0-2.986-1.914-5.362-4.52-5.362-2.604 0-4.524 2.375-4.524 5.36 0 3.18 1.738 5.662 4.525 5.662zm13.613-.18h-1.327c-1.734-2.453-3.455-4.89-5.175-7.647h-.01v7.64h-1.46V10.09h1.33c1.73 2.438 3.46 4.86 5.16 7.6h.03v-7.6h1.46v10.663zm3.474-4.22c.425-1.4.85-2.695 1.232-4.34h.03c.42 1.645.8 2.94 1.2 4.34h-2.47zm.698-6.442L73.24 20.757h1.584l.928-2.91h3.214l.838 2.91h2.038l-3.394-10.663h-1.523zm5.45 0h1.815v9.23h3.61v1.433h-5.424V10.094zM99.34 15.85v4.4c-.977.38-1.997.656-3.032.656-3.138 0-5.116-2.437-5.116-5.574 0-2.908 1.98-5.454 5.178-5.454.987 0 1.98.366 2.59.826l-.597 1.264c-.485-.306-1.246-.565-1.95-.565-1.948 0-3.272 1.538-3.272 3.957 0 2.53 1.53 4.02 3.1 4.02.49 0 .9-.06 1.28-.258v-3.274h1.83zm6.534-4.357h-3.048v2.926h2.985v1.42h-2.98v3.44h3.6v1.43H101V10.06h4.877v1.43zm5.633 7.89c-1.904 0-2.575-2.1-2.575-4.143 0-1.965.763-3.836 2.575-3.836 1.813 0 2.57 1.872 2.57 3.836 0 2.04-.67 4.142-2.57 4.142zm0 1.523c2.786 0 4.524-2.484 4.524-5.667 0-2.99-1.91-5.37-4.52-5.37-2.6 0-4.52 2.38-4.52 5.36 0 3.18 1.74 5.67 4.53 5.67zM124.8 15.85v4.4c-.973.38-1.997.656-3.03.656-3.14 0-5.118-2.437-5.118-5.574 0-2.908 1.98-5.454 5.176-5.454.99 0 1.984.366 2.592.826l-.594 1.264c-.49-.306-1.248-.565-1.95-.565-1.95 0-3.274 1.538-3.274 3.957 0 2.53 1.522 4.02 3.09 4.02.486 0 .9-.06 1.282-.258v-3.274h1.825zm3.503-4.357h.806c1.08 0 1.68.624 1.68 1.722 0 1.43-.87 2.07-1.74 2.117-.19.015-.61.028-.76.045v-3.884zm4.628 9.228l-2.14-4.41c1.17-.62 1.85-1.88 1.85-3.17 0-2.07-1.26-3.07-3.3-3.07h-2.845v10.66h1.83V16.7h.82l1.72 4.02h2.087zm3.02-4.21c.43-1.4.86-2.69 1.24-4.34h.03c.43 1.65.81 2.94 1.21 4.34h-2.47zm.7-6.44l-3.68 10.66h1.59l.93-2.91h3.22l.835 2.91h2.04l-3.395-10.66h-1.528zm7.33 10.66h-1.83V10.07H145c2.04 0 3.304 1.005 3.304 3.074 0 1.8-1.325 3.565-3.5 3.565h-.856v-1.33c.094-.02.593-.03.794-.05.87-.05 1.735-.69 1.735-2.12 0-1.1-.603-1.73-1.67-1.73h-.824v9.23h.003zm12.79 0h-1.82V15.6h-3.79v5.13h-1.81V10.07h1.81v4.097h3.79V10.1h1.83v10.62z" fill="#fff" fill-rule="nonzero"/><path fill="#fff" d="M158.514 10.062h1.813v10.66h-1.813z"/><path d="M168.547 11.997c-.442-.276-1.17-.594-1.874-.594-1.855 0-3.21 1.538-3.21 3.957 0 2.53 1.493 4.02 3.26 4.02.702 0 1.356-.226 1.825-.532l.504 1.325c-.547.384-1.52.733-2.406.733-3.138 0-5.113-2.437-5.113-5.575 0-2.9 1.96-5.45 5.14-5.45.95 0 1.83.4 2.456.83l-.59 1.29zm9.873-.107c-.398-.318-.932-.608-1.465-.608-.76 0-1.17.5-1.17 1.128 0 .7.638 1.232 1.688 2.22 1.218 1.14 1.87 2.038 1.87 3.347 0 1.338-1.094 2.89-3.133 2.89-.943 0-1.993-.336-2.664-1.064l.654-1.217c.488.41 1.036.85 1.86.85.746 0 1.397-.47 1.397-1.475 0-1.17-1.216-1.94-1.933-2.61-.88-.83-1.612-1.49-1.612-2.9 0-1.43 1.218-2.59 2.86-2.59 1.036 0 1.87.44 2.3.93l-.653 1.12zm1.79 3.318c-.002-2.984 1.916-5.358 4.517-5.358 2.603 0 4.518 2.374 4.518 5.358 0 3.18-1.735 5.66-4.518 5.66-2.784 0-4.52-2.48-4.52-5.66h.002zm7.09 0c0-1.964-.762-3.836-2.573-3.836-1.81 0-2.574 1.872-2.574 3.836 0 2.04.672 4.14 2.574 4.14 1.902 0 2.573-2.1 2.573-4.14zm9.49-3.242c-.44-.274-1.17-.593-1.87-.593-1.857 0-3.213 1.536-3.213 3.955 0 2.527 1.492 4.02 3.257 4.02.702 0 1.355-.23 1.827-.532l.51 1.322c-.54.38-1.52.732-2.4.732-3.13 0-5.11-2.436-5.11-5.57 0-2.905 1.96-5.45 5.14-5.45.95 0 1.83.397 2.45.823l-.58 1.293z" fill="#fff" fill-rule="nonzero"/><path fill="#fff" d="M198.49 10.064h1.808v10.654h-1.81z"/><path d="M206.942 11.465H203.9v2.922h2.98v1.43h-2.98v3.44h3.588v1.43h-5.417V10.034h4.88v1.43zm3.696 9.22v-9.22h-2.8v-1.43h7.424v1.43h-2.8v9.22h-1.825zm7.716 0V16.23l-2.786-6.193h2.04c.638 1.537 1.26 2.92 1.885 4.762.703-1.84 1.416-3.23 2.117-4.77h1.507l-2.937 6.19v4.45h-1.826z" fill="#fff" fill-rule="nonzero"/></svg>