<svg viewBox="0 0 82 31" xmlns="http://www.w3.org/2000/svg" fill-rule="evenodd" clip-rule="evenodd" stroke-linejoin="round" stroke-miterlimit="1.414"><path d="M0 30.827V0h21.51v30.827H0zm18.4-3.106V3.11H3.1v24.618h15.3z" fill="gold" fill-rule="nonzero"/><path d="M32.322 15.72v3.085c-.684.266-1.397.457-2.123.457-2.2 0-3.59-1.705-3.59-3.904 0-2.04 1.38-3.823 3.63-3.823.69 0 1.39.26 1.82.58l-.43.883c-.35-.21-.88-.394-1.37-.394-1.37 0-2.3 1.08-2.3 2.777 0 1.77 1.06 2.82 2.17 2.82.33 0 .62-.04.89-.17v-2.3h1.28zm4.58-3.05H34.77v2.05h2.09v1h-2.09v2.413h2.52v1.002h-3.807v-7.47h3.42v1.006zm3.948 5.526c-1.33 0-1.8-1.47-1.8-2.903 0-1.37.53-2.688 1.8-2.688 1.274 0 1.812 1.318 1.812 2.688 0 1.432-.474 2.903-1.81 2.903zm0 1.067c1.96 0 3.173-1.74 3.173-3.97 0-2.086-1.344-3.757-3.172-3.757-1.82 0-3.16 1.67-3.16 3.757 0 2.23 1.22 3.97 3.17 3.97zm9.324-3.543v3.085c-.684.266-1.404.457-2.124.457-2.202 0-3.593-1.705-3.593-3.904 0-2.04 1.39-3.823 3.632-3.823.69 0 1.39.26 1.81.58l-.42.883c-.35-.21-.88-.394-1.38-.394-1.36 0-2.29 1.08-2.29 2.777 0 1.77 1.07 2.82 2.17 2.82.34 0 .63-.04.9-.17v-2.3h1.28zm2.456-3.05h.565c.753 0 1.187.438 1.187 1.204 0 1.01-.61 1.457-1.217 1.484-.124.01-.432.024-.536.03V12.67zm3.24 6.466l-1.5-3.09c.82-.44 1.285-1.327 1.285-2.227 0-1.46-.888-2.16-2.315-2.16h-1.992v7.47h1.28v-2.81h.58l1.203 2.81h1.46zm2.116-2.956c.298-.98.597-1.893.864-3.04h.022c.296 1.146.565 2.06.842 3.04h-1.728zm.492-4.516l-2.58 7.47h1.113l.65-2.033h2.25l.59 2.04h1.43l-2.38-7.47h-1.07zm5.132 7.472h-1.275v-7.472h1.993c1.432 0 2.316.7 2.316 2.156 0 1.257-.925 2.498-2.45 2.498H63.6v-.93c.055-.006.407-.02.544-.03.61-.026 1.214-.476 1.214-1.484 0-.765-.42-1.203-1.167-1.203h-.58v6.47zm8.966 0H71.3v-3.592h-2.66v3.592h-1.266v-7.472h1.266v2.874h2.66v-2.845h1.276v7.443z" fill="#fff" fill-rule="nonzero"/><path fill="#fff" d="M73.804 11.664h1.276v7.47h-1.276z"/><path d="M80.84 13.02c-.304-.193-.82-.415-1.307-.415-1.306 0-2.257 1.08-2.257 2.777 0 1.77 1.046 2.814 2.284 2.814.49 0 .946-.156 1.28-.37l.354.925c-.38.27-1.07.52-1.68.52-2.205 0-3.592-1.7-3.592-3.9 0-2.04 1.377-3.82 3.61-3.82.656 0 1.28.28 1.718.58l-.41.91zM33.11 9.468h-.927c-1.215-1.715-2.422-3.423-3.627-5.36h-.012v5.36h-1.027V1.994h.935c1.213 1.706 2.422 3.41 3.608 5.328h.028V1.994h1.022v7.474zm2.432-2.953c.303-.982.606-1.887.87-3.04h.025c.297 1.153.563 2.058.843 3.04h-1.738zm.5-4.52l-2.59 7.473h1.115l.647-2.035h2.256l.583 2.035h1.43L37.1 1.994h-1.06zm4.65 7.473V3.003h-1.964v-1.01h5.208v1.01h-1.96v6.465H40.69z" fill="#fff" fill-rule="nonzero"/><path fill="#fff" d="M44.354 1.994h1.265v7.474h-1.27z"/><path d="M49.573 8.523c-1.332 0-1.8-1.463-1.8-2.896 0-1.374.528-2.69 1.8-2.69 1.27 0 1.8 1.316 1.8 2.69 0 1.433-.465 2.896-1.8 2.896zm0 1.077c1.954 0 3.172-1.74 3.172-3.973 0-2.095-1.348-3.757-3.172-3.757-1.823 0-3.168 1.662-3.168 3.757 0 2.234 1.214 3.973 3.168 3.973zm9.544-.132h-.93c-1.212-1.715-2.42-3.423-3.624-5.36h-.012v5.36h-1.02V1.994h.93c1.22 1.706 2.42 3.41 3.62 5.328h.02V1.994h1.03v7.474zm2.43-2.953c.305-.982.605-1.887.866-3.04h.02c.305 1.153.57 2.058.844 3.04h-1.73zm.5-4.52l-2.59 7.473h1.108l.655-2.035h2.254l.584 2.035h1.433l-2.38-7.474h-1.06zm3.813 0h1.275v6.47h2.625v1.003h-3.9V1.994zM30.428 22.66c-.28-.222-.652-.425-1.026-.425-.533 0-.822.353-.822.79 0 .49.45.864 1.185 1.558.852.8 1.31 1.428 1.31 2.346 0 .93-.766 2.02-2.196 2.02-.67 0-1.4-.24-1.87-.75l.46-.86c.34.28.72.59 1.3.59.52 0 .98-.33.98-1.04 0-.82-.86-1.367-1.36-1.837-.62-.583-1.13-1.04-1.13-2.033 0-1.002.85-1.813 2-1.813.72 0 1.31.31 1.61.65l-.46.78zm1.12 2.328c0-2.09 1.343-3.755 3.167-3.755s3.17 1.665 3.17 3.755c0 2.23-1.217 3.967-3.17 3.967-1.953 0-3.168-1.738-3.168-3.967zm4.97 0c0-1.377-.535-2.688-1.803-2.688-1.27 0-1.803 1.31-1.803 2.688 0 1.43.47 2.902 1.803 2.902 1.332 0 1.8-1.473 1.8-2.902zm6.652-2.273c-.31-.192-.82-.416-1.313-.416-1.3 0-2.25 1.07-2.25 2.77 0 1.77 1.047 2.81 2.282 2.81.49 0 .95-.16 1.28-.38l.35.92c-.39.26-1.07.51-1.69.51-2.2 0-3.59-1.71-3.59-3.91 0-2.04 1.38-3.82 3.6-3.82.66 0 1.28.275 1.72.574l-.41.907z" fill="#fff" fill-rule="nonzero"/><path fill="#fff" d="M44.494 21.382h1.27v7.465h-1.27z"/><path d="M50.42 22.364h-2.135v2.048h2.09v1.002h-2.09v2.41h2.518v1.004h-3.797V21.36l3.414.002v1.002zm2.59 6.464v-6.464h-1.963V21.36h5.204v1.004h-1.96v6.464h-1.28zm5.408 0v-3.126l-1.95-4.34h1.427c.45 1.077.886 2.046 1.322 3.337.49-1.3.992-2.27 1.482-3.34h1.05l-2.06 4.34v3.12h-1.28z" fill="#fff" fill-rule="nonzero"/></svg>