<svg viewBox="0 0 32 32"><defs><path d="M12 0C8.852 0 6 2.553 6 5.702 6 10.384 10.783 10.88 12 18c1.217-7.12 6-7.616 6-12.298C18 2.552 15.15 0 12 0zm0 8c-1.105 0-2-.895-2-2s.895-2 2-2 2 .895 2 2-.895 2-2 2zm12 16l-6.707-2.427L12 24l-5.58-2.427L0 24l4-9 3.96-1.584c.38.516.74 1.08 1.06 1.73l-3.52 1.41-1.725 3.88 2.672-1.01 1.506-2.69-.634 3.045 4.19 1.79.49-2.02.463 2.026 4.15-1.89-.618-3.033 1.572 2.898 2.73.99-1.74-3.98-3.58-1.413c.32-.65.68-1.215 1.06-1.73L20.067 15 24 24z" id="icon-society-1pagemap"><path d="M1.44 16.873L0 24l7.128-1.437L24 5.69 18.31 0 1.44 16.874zm4.7 3.848l-3.58.725.72-3.584 2.86 2.86zM21.173 5.69L7.555 19.306l-2.86-2.86L15.52 5.62l2.846 2.846 1.414-1.414-2.846-2.846L18.31 2.83l2.862 2.86z" id="icon-society-activity"><g id="icon-society-add"><style type="text/css">.st0{fill:#FFFFFF;} .st1{fill-rule:evenodd;clip-rule:evenodd;} .st2{fill:#010101;} .st3{clip-path:url(#SVGID_2_);} .st4{fill:#000006;}</style><path d="M15 32V17H0v-2h15V0h2v15h15v2H17v15z"></g><path d="M18.667 13.333v-2.666c0-4.098-2.847-8.01-6.667-9.054v-.28C12 .597 11.403 0 10.667 0H9.333C8.597 0 8 .597 8 1.333v.28C4.18 2.657 1.333 6.57 1.333 10.667v2.666H0v1.334C0 15.403.597 16 1.333 16h17.334c.736 0 1.333-.597 1.333-1.333v-1.334h-1.333zM8 19.36c0 1.09.884 1.973 1.973 1.973h.012c1.09 0 2.015-.884 2.015-1.973v-2.027H8v2.027z" id="icon-society-alarmbell"><path d="M979 960q0 13-10 23l-466 466q-10 10-23 10t-23-10l-50-50q-10-10-10-23t10-23l393-393-393-393q-10-10-10-23t10-23l50-50q10-10 23-10t23 10l466 466q10 10 10 23zm384 0q0 13-10 23l-466 466q-10 10-23 10t-23-10l-50-50q-10-10-10-23t10-23l393-393-393-393q-10-10-10-23t10-23l50-50q10-10 23-10t23 10l466 466q10 10 10 23z" id="icon-society-angle-double-right"><path d="M1.44 16.873L0 24l7.128-1.437L24 5.69 18.31 0 1.44 16.874zm4.7 3.848l-3.58.725.72-3.584 2.86 2.86zM21.173 5.69L7.555 19.306l-2.86-2.86L15.52 5.62l2.846 2.846 1.414-1.414-2.846-2.846L18.31 2.83l2.862 2.86z" id="icon-society-archived-activity"><path d="M12 4.706C9.062 2.876 4.584 2.14 0 2v17.714c3.937.12 7.795.68 10.667 1.995.846.387 1.817.387 2.667 0 2.872-1.315 6.73-1.876 10.666-1.996V2c-4.584.14-9.062.876-12 2.706zM2 17.81V4.106c5.157.39 7.527 1.463 9 2.334v13.168c-1.525-.546-4.716-1.504-9-1.798zm20 0c-4.283.293-7.475 1.252-9 1.8V6.437c1.453-.86 3.83-1.942 9-2.332V17.81zM20 7.596c-2.086.312-4.45 1.023-6 1.672V8.204c1.668-.622 3.88-1.315 6-1.626v1.018zm0 3.055c-2.12.312-4.332 1.005-6 1.627v1.064c1.55-.648 3.914-1.36 6-1.672V10.65zm0-2.03c-2.12.31-4.332 1.004-6 1.626v1.064c1.55-.65 3.914-1.36 6-1.673V8.62zm0 6.093c-2.12.31-4.332 1.004-6 1.626v1.063c1.55-.65 3.914-1.36 6-1.673v-1.017zm0-2.03c-2.12.31-4.332 1.003-6 1.625v1.064c1.55-.65 3.914-1.36 6-1.673V12.68zM4 6.577c2.12.31 4.332 1.004 6 1.626v1.064c-1.55-.65-3.914-1.36-6-1.672V6.578zm0 5.09c2.086.312 4.45 1.023 6 1.673v-1.063c-1.668-.622-3.88-1.315-6-1.626v1.018zm0-2.03c2.086.31 4.45 1.022 6 1.672v-1.064C8.332 9.624 6.12 8.93 4 8.62v1.017zm0 6.092c2.086.312 4.45 1.023 6 1.673V16.34c-1.668-.623-3.88-1.316-6-1.627v1.017zm0-2.03c2.086.31 4.45 1.022 6 1.672v-1.064c-1.668-.622-3.88-1.315-6-1.626V13.7z" id="icon-society-archived-lesson"><path d="M16 0H2v24h20V6l-6-6zm0 3l3 3h-3V3zM4 22V2h10v6h6v14H4z" id="icon-society-archived-page"><g id="icon-society-arrowdown"><style type="text/css">.st0{fill:#FFFFFF;} .st1{fill-rule:evenodd;clip-rule:evenodd;} .st2{fill:#010101;} .st3{clip-path:url(#SVGID_2_);} .st4{fill:#000006;}</style><path d="M0 16l16 16 16-16-1.4-1.4-13.7 13.7V0H15v28.2L1.4 14.6z"></g><g id="icon-society-arrowleft"><style type="text/css">.st0{fill:#FFFFFF;} .st1{fill-rule:evenodd;clip-rule:evenodd;} .st2{fill:#010101;} .st3{clip-path:url(#SVGID_2_);} .st4{fill:#000006;}</style><path d="M16 0L0 16l16 16 1.4-1.4L3.7 16.9H32V15H3.8L17.4 1.4z"></g><g id="icon-society-arrowne"><style type="text/css">.st0{fill:#FFFFFF;} .st1{fill-rule:evenodd;clip-rule:evenodd;} .st2{fill:#010101;} .st3{clip-path:url(#SVGID_2_);} .st4{fill:#000006;}</style><path d="M30.1 32V3.4L4.9 28.5l-1.4-1.4L28.6 1.9H0V0h32v32z"></g><g id="icon-society-arrowright"><style type="text/css">.st0{fill:#FFFFFF;} .st1{fill-rule:evenodd;clip-rule:evenodd;} .st2{fill:#010101;} .st3{clip-path:url(#SVGID_2_);} .st4{fill:#000006;}</style><path d="M16 32l16-16L16 0l-1.4 1.4 13.7 13.7H0V17h28.2L14.6 30.6z"></g><g id="icon-society-arrowup"><style type="text/css">.st0{fill:#FFFFFF;} .st1{fill-rule:evenodd;clip-rule:evenodd;} .st2{fill:#010101;} .st3{clip-path:url(#SVGID_2_);} .st4{fill:#000006;}</style><path d="M32 16L16 0 0 16l1.4 1.4L15.1 3.7V32H17V3.8l13.6 13.6z"></g><path d="M11.4 2C15.5 2 14 8 14 8s6-1.6 6 2.5V22H4V2h7.4zm.8-2H2v24h20V9.6C22 7.2 15.4 0 12.2 0zM17 13H7v-1h10v1zm0 2H7v1h10v-1zm0 3H7v1h10v-1z" id="icon-society-article"><path d="M16 0C9.5 0 4.2 5.3 4.2 11.8 4.2 18.4 9.3 22.4 16 32c6.8-9.6 11.8-13.6 11.8-20.2C27.8 5.3 22.5 0 16 0zm0 16.8c-2.5 0-4.5-2-4.5-4.5s2-4.5 4.5-4.5 4.5 2 4.5 4.5-2 4.5-4.5 4.5z" id="icon-society-atlas"><g id="icon-society-audio"><style type="text/css">.st0{fill:#FFFFFF;} .st1{fill-rule:evenodd;clip-rule:evenodd;} .st2{fill:#010101;} .st3{clip-path:url(#SVGID_2_);} .st4{fill:#000006;}</style><path d="M12.7 12.4H7.2v7.2h5.5l10.8 7.2V5.2z"></g><g id="icon-society-audioloud"><style type="text/css">.st0{fill:#FFFFFF;} .st1{fill-rule:evenodd;clip-rule:evenodd;} .st2{fill:#010101;} .st3{clip-path:url(#SVGID_2_);} .st4{fill:#000006;}</style><path d="M7.4 12.4H2v7.2h5.4l10.8 7.2V5.2z"><defs><path id="66702d15456eaf56e62674c251862c9fSVGID_7_" d="M0 5.1h30.5v21.7H0z"></defs><clippath id="66702d15456eaf56e62674c251862c9fSVGID_1_"><use xlink:href="#SVGID_7_" overflow="visible"></clippath><path d="M23.7 26.9c-.3 0-.5-.1-.7-.4-.2-.4-.1-.8.3-1 3.5-1.9 5.6-5.5 5.6-9.4 0-3.9-2.2-7.5-5.6-9.4-.4-.2-.5-.7-.3-1 .2-.4.7-.5 1-.3 4 2.2 6.4 6.3 6.4 10.8 0 4.5-2.5 8.6-6.4 10.8 0-.2-.2-.1-.3-.1M21.8 23.5c-.3 0-.5-.1-.7-.4-.2-.4-.1-.8.3-1 2.2-1.2 3.6-3.5 3.6-6.1 0-2.5-1.4-4.9-3.6-6.1-.4-.2-.5-.7-.3-1 .2-.4.7-.5 1-.3 2.7 1.5 4.4 4.3 4.4 7.4 0 3.1-1.7 5.9-4.4 7.4 0 .1-.1.1-.3.1" clip-path="url(#SVGID_1_)"></g><g id="icon-society-audiomute"><style type="text/css">.st0{fill:#FFFFFF;} .st1{fill-rule:evenodd;clip-rule:evenodd;} .st2{fill:#010101;} .st3{clip-path:url(#SVGID_2_);} .st4{fill:#000006;}</style><path d="M7.4 12.4H2v7.2h5.4l10.8 7.2V5.2zM29.4 20.6l.6-.6-4-4 4-4-.6-.6-4 4-4-4-.7.6 4 4-4 4 .7.6 4-4z"></g><g id="icon-society-border"><style type="text/css">.st0{fill:#FFFFFF;} .st1{fill-rule:evenodd;clip-rule:evenodd;} .st2{fill:#010101;} .st3{clip-path:url(#SVGID_2_);} .st4{fill:#000006;}</style><path d="M4.8 32V0h22.3v32H4.8zm19.1-3.2V3.2H8.1v25.6h15.8z"></g><g id="icon-society-boxarrowne"><style type="text/css">.st0{fill:#FFFFFF;} .st1{fill-rule:evenodd;clip-rule:evenodd;} .st2{fill:#010101;} .st3{clip-path:url(#SVGID_2_);} .st4{fill:#000006;}</style><path d="M14 15l3 3L29 5v14h3V0H13v3h13zM29 29H3V3h4V0H0v32h32v-7h-3z"></g><path d="M20 20h-4v-4h4v4zm-6-10h-4v4h4v-4zm6 0h-4v4h4v-4zM8 16H4v4h4v-4zm6 0h-4v4h4v-4zm-6-6H4v4h4v-4zm16-8v22H0V2h3v1c0 1.103.897 2 2 2s2-.897 2-2V2h10v1c0 1.103.897 2 2 2s2-.897 2-2V2h3zm-2 6H2v14h20V8zm-2-7c0-.552-.447-1-1-1s-1 .448-1 1v2c0 .552.447 1 1 1s1-.448 1-1V1zM6 3c0 .552-.447 1-1 1s-1-.448-1-1V1c0-.552.447-1 1-1s1 .448 1 1v2z" id="icon-society-calendar_detail"><g id="icon-society-calendar_event"><path d="M99 21.543C99 16.276 94.724 12 89.457 12H15.543C10.276 12 6 16.276 6 21.543v73.914c0 5.267 4.276 9.543 9.543 9.543h73.914c5.267 0 9.543-4.276 9.543-9.543V21.543z"><path d="M6 29h93v4H6v-4z" fill="#fff"><circle cx="31.5" cy="21" r="6" fill="#fff"><circle cx="73.5" cy="21" r="6" fill="#fff"><path d="M34.5 3c0-1.656-1.344-3-3-3s-3 1.344-3 3v18c0 1.656 1.344 3 3 3s3-1.344 3-3V3zm42 0c0-1.656-1.344-3-3-3s-3 1.344-3 3v18c0 1.656 1.344 3 3 3s3-1.344 3-3V3z"><path d="M12.5 40h17v17h-17V40zm0 21h17v17h-17V61zm0 21h17v17H16.487c-2.202 0-3.987-1.785-3.987-3.987V82zm21-42h17v17h-17V40zm0 21h17v17h-17V61zm0 21h17v17h-17V82zm21-42h17v17h-17V40zm0 21h17v17h-17V61zm0 21h17v17h-17V82zm21-42h17v17h-17V40zm0 21h17v17h-17V61zm0 21h17v13.044C92.5 97.23 90.73 99 88.544 99H75.5V82z" fill="#fff"></g><path d="M12 0C5.384 0 0 5.384 0 12c0 6.617 5.384 12 12 12 6.617 0 12-5.383 12-12S18.617 0 12 0zM4.5 12c0-1.248.336-2.406.876-3.442l10.066 10.066c-1.036.54-2.194.876-3.442.876-4.136 0-7.5-3.365-7.5-7.5zm14.124 3.442L8.557 5.376C9.594 4.836 10.752 4.5 12 4.5c4.135 0 7.5 3.364 7.5 7.5 0 1.248-.336 2.406-.876 3.442z" id="icon-society-cancel"><path d="M12 3c5.514 0 10 3.592 10 8.007 0 4.917-5.144 7.96-9.91 7.96-1.937 0-3.384-.396-4.394-.643-1 .613-1.594 1.037-4.272 1.82.535-1.373.722-2.748.6-4.265C3.19 14.88 2 13.48 2 11.004 2 6.592 6.486 3 12 3zm0-2C5.662 1 0 5.226 0 11.007c0 2.05.74 4.063 2.047 5.625.055 1.83-1.023 4.456-1.993 6.368 2.602-.47 6.3-1.508 7.978-2.536 1.417.345 2.774.503 4.06.503 7.083 0 11.91-4.837 11.91-9.96C24 5.194 18.298 1 12 1z" id="icon-society-cartoon"><path d="M12 2c5.5 0 10 4.5 10 10s-4.5 10-10 10S2 17.5 2 12 6.5 2 12 2zm0-2C5.4 0 0 5.4 0 12s5.4 12 12 12 12-5.4 12-12S18.6 0 12 0zM8.8 18.1L5 14.3l1.4-1.4 2.4 2.4L17 7l1.4 1.4" id="icon-society-check-circle"><path d="M9.173 23.883l-6.617-6.615-2.404 2.404 9.02 9.02L31.85 6.014V5.41l-2.102-2.102L9.172 23.883z" id="icon-society-check"><path d="M12 2c5.5 0 10 4.5 10 10s-4.5 10-10 10S2 17.5 2 12 6.5 2 12 2zm0-2C5.4 0 0 5.4 0 12s5.4 12 12 12 12-5.4 12-12S18.6 0 12 0zm5.8 12.5c.2 0 .2.3 0 .4-1.9.4-6 1.1-6.5 1.1-.7 0-1.3-.6-1.3-1.3 0-.5.8-5.4 1.1-7.4 0-.2.3-.2.3 0l1 6.2 5.4 1z" id="icon-society-clock"><g id="icon-society-close"><style type="text/css">.st0{fill:#FFFFFF;} .st1{fill-rule:evenodd;clip-rule:evenodd;} .st2{fill:#010101;} .st3{clip-path:url(#SVGID_2_);} .st4{fill:#000006;}</style><path d="M16 17.4L5.5 27.8l-1.3-1.3L14.6 16 4.2 5.5l1.3-1.3L16 14.6 26.5 4.2l1.3 1.3L17.4 16l10.4 10.5-1.3 1.3z"></g><path d="M6 22V6h16v7.543C22 17.65 16 16 16 16s1.518 6-2.638 6H6zm18-7.614V4H4v20h10.19c3.16 0 9.81-7.223 9.81-9.614zM22 3H3v19H2V2h20v1zm-2-2H1v19H0V0h20v1z" id="icon-society-collection"><path d="M14.568.075C16.77 1.25 20.506 4.958 22 6.955c-1.286-.9-4.044-1.656-6.09-1.178.22-1.468-.186-4.534-1.342-5.702zM22 11v13H2V0h8.41c4.856 0 3.334 8 3.334 8C16.754 7.255 22 7.58 22 11zM7 12.5c0 .828.672 1.5 1.5 1.5s1.5-.672 1.5-1.5S9.328 11 8.5 11 7 11.672 7 12.5zM17 19l-3.5-6-2.093 2.968-1.31-.968L7 19h10z" id="icon-society-coloringpage"><g id="icon-society-comment"><style type="text/css">.st0{fill:#FFFFFF;} .st1{fill-rule:evenodd;clip-rule:evenodd;} .st2{fill:#010101;} .st3{clip-path:url(#SVGID_2_);} .st4{fill:#000006;}</style><path d="M26 23h6V1H0v22h16v8"></g><g id="icon-society-contract"><style type="text/css">.st0{fill:#FFFFFF;} .st1{fill-rule:evenodd;clip-rule:evenodd;} .st2{fill:#010101;} .st3{clip-path:url(#SVGID_2_);} .st4{fill:#000006;}</style><path d="M17.6 0v14.4H32V13H20.1L30.7 2.3l-1-1L19.1 12V0zM0 17.6v1.5h12L1.3 29.7l1 1L13 20.1V32h1.4V17.6z"></g><g id="icon-society-danger-circle"><path d="M12 2c5.5 0 10 4.5 10 10s-4.5 10-10 10S2 17.5 2 12 6.5 2 12 2zm0-2C5.4 0 0 5.4 0 12s5.4 12 12 12 12-5.4 12-12S18.6 0 12 0zM11 6.1h2v8.4h-2z"><circle cx="12" cy="17.7" r="1.2"></g><g id="icon-society-directiondown"><style type="text/css">.st0{fill:#FFFFFF;} .st1{fill-rule:evenodd;clip-rule:evenodd;} .st2{fill:#010101;} .st3{clip-path:url(#SVGID_2_);} .st4{fill:#000006;}</style><path d="M0 8.7l1.5-1.4L16 21.8 30.5 7.3 32 8.7l-16 16z"></g><g id="icon-society-directionleft"><style type="text/css">.st0{fill:#FFFFFF;} .st1{fill-rule:evenodd;clip-rule:evenodd;} .st2{fill:#010101;} .st3{clip-path:url(#SVGID_2_);} .st4{fill:#000006;}</style><path d="M23.3 0l1.4 1.5L10.2 16l14.5 14.5-1.4 1.5-16-16z"></g><g id="icon-society-directionright"><style type="text/css">.st0{fill:#FFFFFF;} .st1{fill-rule:evenodd;clip-rule:evenodd;} .st2{fill:#010101;} .st3{clip-path:url(#SVGID_2_);} .st4{fill:#000006;}</style><path d="M8.7 0L7.3 1.5 21.8 16 7.3 30.5 8.7 32l16-16z"></g><g id="icon-society-directionup"><style type="text/css">.st0{fill:#FFFFFF;} .st1{fill-rule:evenodd;clip-rule:evenodd;} .st2{fill:#010101;} .st3{clip-path:url(#SVGID_2_);} .st4{fill:#000006;}</style><path d="M0 23.3l1.5 1.4L16 10.2l14.5 14.5 1.5-1.4-16-16z"></g><path d="M16 0H2v24h20V6l-6-6zm0 3l3 3h-3V3zM4 22V2h10v6h6v14H4z" id="icon-society-document"><path d="M14 2v11h2.5L12 18l-4.5-5H10V2h4zm2-2H8v11H3l9 10 9-10h-5V0zm3 19v3H5v-3H3v5h18v-5h-2z" id="icon-society-download"><path d="M45.8 17.2c-3.842-2.747-8.31-2.42-11.336-1.686-.104-1.065-.3-2.407-.614-3.788 2.01.373 4.64.492 7.02-.566 4.69-2.09 6.63-7.94 6.63-7.94S41.84.74 37.148 2.83c-2.13.94-3.69 2.67-4.763 4.263-.606-1.507-1.36-3.07-2.34-4.654L25.8 5.07c1.91 3.085 3.125 6.55 3.597 10.14.34 2.563.32 5.22-.06 7.776l3.824-1.857c.06-.03 5.8-2.76 9.73.05 3.54 2.53 4.63 9.93 2.66 17.99-1.54 6.31-4.723 11.36-7.403 11.743-1.9.27-2.583-.027-3.935-.857-1.063-.66-2.39-1.47-4.4-1.91-.493-.11-.966-.16-1.422-.16-2.027 0-3.695.943-5.086 1.73-1.98 1.12-3.19 1.6-5.1.89-2.74-1.016-6.24-8.58-6.666-16.82-.17-3.35-.005-11.404 5.224-13.98 3.222-1.59 6.446-.567 8.542.527.105-1.917.053-4.11-.2-5.5-2.93-1.01-6.675-1.42-10.55.49-5.56 2.737-8.477 9.554-8.008 18.72.446 8.68 4.07 19.076 9.914 21.245 4.182 1.552 7.14-.12 9.3-1.34 1.38-.784 2.2-1.217 2.975-1.045 1.186.26 1.96.735 2.86 1.286 1.32.81 2.915 1.785 5.54 1.785.527 0 1.098-.04 1.714-.13 5.934-.85 9.86-8.567 11.555-15.506 1.906-7.83 1.85-18.54-4.61-23.16" id="icon-society-educator"><path d="M23 5v13.883L22 19V3c-3.895.12-7.505.762-10.002 2.316C9.502 3.762 5.896 3.12 2 3v16l-1-.117V5H0v15h9.057c1.48 0 1.64 1 2.94 1 1.305 0 1.462-1 2.943-1H24V5h-1zM11 18.645c-1.946-.772-4.137-1.27-7-1.484V5.11c2.352.197 4.996.675 7 1.922v11.613zm9-1.484c-2.863.216-5.054.713-7 1.485V7.032c2.004-1.247 4.648-1.725 7-1.922v12.05z" id="icon-society-educatorguide"><path d="M10.88 13.754c.136-1.12.652-2.917 1.78-2.917.987 0 .873 1.532.156 2.31-.593.645-1.552.607-1.937.607zM5.494 4H22v20H5c-1.657 0-3-1.343-3-3V3c0-1.657 1.343-3 3-3h17v2H5.495c-1.375 0-1.375 2 0 2zM9.69 17.124c1.295 1.325 3.613 1.253 5.05-.953l-.485-.5c-.77 1.222-2.21 1.864-3.025.757-.406-.55-.465-1.514-.405-2.107 1.115.268 2.455.217 3.437-.473C15.542 12.95 15.767 10 12.858 10c-1.63 0-3 1.147-3.572 2.49-.615 1.445-.702 3.5.404 4.634z" id="icon-society-encyclopedia"><g id="icon-society-envelope"><style type="text/css">.st0{fill:#FFFFFF;} .st1{fill-rule:evenodd;clip-rule:evenodd;} .st2{fill:#010101;} .st3{clip-path:url(#SVGID_2_);} .st4{fill:#000006;}</style><path d="M0 28.9V3.1h32V29H0zm2.4-2.4h27.1V7.3L16 20.9 2.4 7.3v19.2zM16 17.2L27.7 5.5H4.3L16 17.2z"></g><path d="M1024 544v448q0 14-9 23t-23 9H672q-14 0-23-9t-9-23v-64q0-14 9-23t23-9h224V544q0-14 9-23t23-9h64q14 0 23 9t9 23zm416 352q0-148-73-273t-198-198-273-73-273 73-198 198-73 273 73 273 198 198 273 73 273-73 198-198 73-273zm224 0q0 209-103 385.5T1281.5 1561 896 1664t-385.5-103T231 1281.5 128 896t103-385.5T510.5 231 896 128t385.5 103T1561 510.5 1664 896z" id="icon-society-event"><g id="icon-society-expand"><style type="text/css">.st0{fill:#FFFFFF;} .st1{fill-rule:evenodd;clip-rule:evenodd;} .st2{fill:#010101;} .st3{clip-path:url(#SVGID_2_);} .st4{fill:#000006;}</style><path d="M16 0v1.6h13.3L17.5 13.5l1.1 1.1L30.4 2.7V16H32V0zM0 16v16h16v-1.6H2.7l11.9-11.8-1.1-1.1L1.6 29.3V16z"></g><g id="icon-society-external-link"><style type="text/css">.st0{fill:#FFFFFF;} .st1{fill-rule:evenodd;clip-rule:evenodd;} .st2{fill:#010101;} .st3{clip-path:url(#SVGID_2_);} .st4{fill:#000006;}</style><path d="M14 15l3 3L29 5v14h3V0H13v3h13zM29 29H3V3h4V0H0v32h32v-7h-3z"></g><path d="M1011 1376q0 13-10 23l-50 50q-10 10-23 10t-23-10L439 983q-10-10-10-23t10-23l466-466q10-10 23-10t23 10l50 50q10 10 10 23t-10 23L608 960l393 393q10 10 10 23zm384 0q0 13-10 23l-50 50q-10 10-23 10t-23-10L823 983q-10-10-10-23t10-23l466-466q10-10 23-10t23 10l50 50q10 10 10 23t-10 23L992 960l393 393q10 10 10 23z" id="icon-society-fa-angle-double-left"><path d="M979 960q0 13-10 23l-466 466q-10 10-23 10t-23-10l-50-50q-10-10-10-23t10-23l393-393-393-393q-10-10-10-23t10-23l50-50q10-10 23-10t23 10l466 466q10 10 10 23zm384 0q0 13-10 23l-466 466q-10 10-23 10t-23-10l-50-50q-10-10-10-23t10-23l393-393-393-393q-10-10-10-23t10-23l50-50q10-10 23-10t23 10l466 466q10 10 10 23z" id="icon-society-fa-angle-double-right"><path d="M1703 478q40 57 18 129l-275 906q-19 64-76.5 107.5T1247 1664H324q-77 0-148.5-53.5T76 1479q-24-67-2-127 0-4 3-27t4-37q1-8-3-21.5t-3-19.5q2-11 8-21t16.5-23.5T116 1179q23-38 45-91.5t30-91.5q3-10 .5-30t-.5-28q3-11 17-28t17-23q21-36 42-92t25-90q1-9-2.5-32t.5-28q4-13 22-30.5t22-22.5q19-26 42.5-84.5T404 411q1-8-3-25.5t-2-26.5q2-8 9-18t18-23 17-21q8-12 16.5-30.5t15-35 16-36 19.5-32 26.5-23.5 36-11.5T620 134l-1 3q38-9 51-9h761q74 0 114 56t18 130l-274 906q-36 119-71.5 153.5T1089 1408H220q-27 0-38 15-11 16-1 43 24 70 144 70h923q29 0 56-15.5t35-41.5l300-987q7-22 5-57 38 15 59 43zm-1064 2q-4 13 2 22.5t20 9.5h608q13 0 25.5-9.5T1311 480l21-64q4-13-2-22.5t-20-9.5H702q-13 0-25.5 9.5T660 416zm-83 256q-4 13 2 22.5t20 9.5h608q13 0 25.5-9.5T1228 736l21-64q4-13-2-22.5t-20-9.5H619q-13 0-25.5 9.5T577 672z" id="icon-society-fa-book"><path d="M1408 704q0 26-19 45l-448 448q-19 19-45 19t-45-19L403 749q-19-19-19-45t19-45 45-19h896q26 0 45 19t19 45z" id="icon-society-fa-caret-down"><path d="M1152 896q0 26-19 45l-448 448q-19 19-45 19t-45-19-19-45V448q0-26 19-45t45-19 45 19l448 448q19 19 19 45z" id="icon-society-fa-caret-right"><path d="M1408 1216q0 26-19 45t-45 19H448q-26 0-45-19t-19-45 19-45l448-448q19-19 45-19t45 19l448 448q19 19 19 45z" id="icon-society-fa-caret-up"><path d="M1024 544v448q0 14-9 23t-23 9H672q-14 0-23-9t-9-23v-64q0-14 9-23t23-9h224V544q0-14 9-23t23-9h64q14 0 23 9t9 23zm416 352q0-148-73-273t-198-198-273-73-273 73-198 198-73 273 73 273 198 198 273 73 273-73 198-198 73-273zm224 0q0 209-103 385.5T1281.5 1561 896 1664t-385.5-103T231 1281.5 128 896t103-385.5T510.5 231 896 128t385.5 103T1561 510.5 1664 896z" id="icon-society-fa-clock-o"><path d="M1344 1344q0-26-19-45t-45-19-45 19-19 45 19 45 45 19 45-19 19-45zm256 0q0-26-19-45t-45-19-45 19-19 45 19 45 45 19 45-19 19-45zm128-224v320q0 40-28 68t-68 28H160q-40 0-68-28t-28-68v-320q0-40 28-68t68-28h465l135 136q58 56 136 56t136-56l136-136h464q40 0 68 28t28 68zm-325-569q17 41-14 70l-448 448q-18 19-45 19t-45-19L403 621q-31-29-14-70 17-39 59-39h256V64q0-26 19-45t45-19h256q26 0 45 19t19 45v448h256q42 0 59 39z" id="icon-society-fa-download"><path d="M832 1408l336-384H400L64 1408h768zM1845 331q15 34 9.5 71.5T1824 468L928 1492q-38 44-96 44H64q-38 0-69.5-20.5T-53 1461q-15-34-9.5-71.5T-32 1324L864 300q38-44 96-44h768q38 0 69.5 20.5T1845 331z" id="icon-society-fa-eraser"><path d="M1181 913q0 208-87 370.5t-248 254-369 91.5q-149 0-285-58t-234-156-156-234-58-285 58-285 156-234 234-156 285-58q286 0 491 192L769 546Q652 433 477 433q-123 0-227.5 62T84 663.5 23 896t61 232.5T249.5 1297t227.5 62q83 0 152.5-23t114.5-57.5 78.5-78.5 49-83 21.5-74H477V791h692q12 63 12 122zm867-122v210h-209v209h-210v-209h-209V791h209V582h210v209h209z" id="icon-society-fa-google-plus"><path d="M1472 992v480q0 26-19 45t-45 19h-384v-384H768v384H384q-26 0-45-19t-19-45V992q0-1 .5-3t.5-3l575-474 575 474q1 2 1 6zm223-69l-62 74q-8 9-21 11h-3q-13 0-21-7L896 424l-692 577q-12 8-24 7-13-2-21-11l-62-74q-8-10-7-23.5t11-21.5l719-599q32-26 76-26t76 26l244 204V288q0-14 9-23t23-9h192q14 0 23 9t9 23v408l219 182q10 8 11 21.5t-7 23.5z" id="icon-society-fa-home"><path d="M1152 1376v-160q0-14-9-23t-23-9h-96V672q0-14-9-23t-23-9H672q-14 0-23 9t-9 23v160q0 14 9 23t23 9h96v320h-96q-14 0-23 9t-9 23v160q0 14 9 23t23 9h448q14 0 23-9t9-23zm-128-896V320q0-14-9-23t-23-9H800q-14 0-23 9t-9 23v160q0 14 9 23t23 9h192q14 0 23-9t9-23zm640 416q0 209-103 385.5T1281.5 1561 896 1664t-385.5-103T231 1281.5 128 896t103-385.5T510.5 231 896 128t385.5 103T1561 510.5 1664 896z" id="icon-society-fa-info-circle"><path d="M384 1408q0 80-56 136t-136 56-136-56-56-136 56-136 136-56 136 56 56 136zm0-512q0 80-56 136t-136 56-136-56T0 896t56-136 136-56 136 56 56 136zm1408 416v192q0 13-9.5 22.5t-22.5 9.5H544q-13 0-22.5-9.5T512 1504v-192q0-13 9.5-22.5t22.5-9.5h1216q13 0 22.5 9.5t9.5 22.5zM384 384q0 80-56 136t-136 56-136-56T0 384t56-136 136-56 136 56 56 136zm1408 416v192q0 13-9.5 22.5t-22.5 9.5H544q-13 0-22.5-9.5T512 992V800q0-13 9.5-22.5T544 768h1216q13 0 22.5 9.5t9.5 22.5zm0-512v192q0 13-9.5 22.5T1760 512H544q-13 0-22.5-9.5T512 480V288q0-13 9.5-22.5T544 256h1216q13 0 22.5 9.5t9.5 22.5z" id="icon-society-fa-list-ul"><path d="M1344 800v64q0 14-9 23t-23 9H480q-14 0-23-9t-9-23v-64q0-14 9-23t23-9h832q14 0 23 9t9 23zm128 448V416q0-66-47-113t-113-47H480q-66 0-113 47t-47 113v832q0 66 47 113t113 47h832q66 0 113-47t47-113zm128-832v832q0 119-84.5 203.5T1312 1536H480q-119 0-203.5-84.5T192 1248V416q0-119 84.5-203.5T480 128h832q119 0 203.5 84.5T1600 416z" id="icon-society-fa-minus-square-o"><path d="M1344 800v64q0 14-9 23t-23 9H960v352q0 14-9 23t-23 9h-64q-14 0-23-9t-9-23V896H480q-14 0-23-9t-9-23v-64q0-14 9-23t23-9h352V416q0-14 9-23t23-9h64q14 0 23 9t9 23v352h352q14 0 23 9t9 23zm128 448V416q0-66-47-113t-113-47H480q-66 0-113 47t-47 113v832q0 66 47 113t113 47h832q66 0 113-47t47-113zm128-832v832q0 119-84.5 203.5T1312 1536H480q-119 0-203.5-84.5T192 1248V416q0-119 84.5-203.5T480 128h832q119 0 203.5 84.5T1600 416z" id="icon-society-fa-plus-square-o"><path d="M1024 1376v-192q0-14-9-23t-23-9H800q-14 0-23 9t-9 23v192q0 14 9 23t23 9h192q14 0 23-9t9-23zm256-672q0-88-55.5-163T1086 425t-170-41q-243 0-371 213-15 24 8 42l132 100q7 6 19 6 16 0 25-12 53-68 86-92 34-24 86-24 48 0 85.5 26t37.5 59q0 38-20 61t-68 45q-63 28-115.5 86.5T768 1020v36q0 14 9 23t23 9h192q14 0 23-9t9-23q0-19 21.5-49.5T1100 957q32-18 49-28.5t46-35 44.5-48 28-60.5 12.5-81zm384 192q0 209-103 385.5T1281.5 1561 896 1664t-385.5-103T231 1281.5 128 896t103-385.5T510.5 231 896 128t385.5 103T1561 510.5 1664 896z" id="icon-society-fa-question-circle"><path d="M1408 1088q0 26-19 45l-448 448q-19 19-45 19t-45-19l-448-448q-19-19-19-45t19-45 45-19h896q26 0 45 19t19 45zm0-384q0 26-19 45t-45 19H448q-26 0-45-19t-19-45 19-45l448-448q19-19 45-19t45 19l448 448q19 19 19 45z" id="icon-society-fa-sort"><path d="M1728 576v256q0 26-19 45t-45 19h-64q-26 0-45-19t-19-45V576q0-106-75-181t-181-75-181 75-75 181v192h96q40 0 68 28t28 68v576q0 40-28 68t-68 28H160q-40 0-68-28t-28-68V864q0-40 28-68t68-28h672V576q0-185 131.5-316.5T1280 128t316.5 131.5T1728 576z" id="icon-society-fa-unlock"><path d="M1024 1375v-190q0-14-9.5-23.5T992 1152H800q-13 0-22.5 9.5T768 1185v190q0 14 9.5 23.5t22.5 9.5h192q13 0 22.5-9.5t9.5-23.5zm-2-374l18-459q0-12-10-19-13-11-24-11H786q-11 0-24 11-10 7-10 21l17 457q0 10 10 16.5t24 6.5h185q14 0 23.5-6.5t10.5-16.5zm-14-934l768 1408q35 63-2 126-17 29-46.5 46t-63.5 17H128q-34 0-63.5-17T18 1601q-37-63-2-126L784 67q17-31 47-49t65-18 65 18 47 49z" id="icon-society-fa-warning"><path d="M248.1 4.6H18.8C11 4.6 4.6 11 4.6 18.8v229.3c0 7.9 6.4 14.2 14.2 14.2h123.4v-99.8h-33.6v-38.9h33.6V94.9c0-33.3 20.3-51.4 50-51.4 14.2 0 26.5 1.1 30 1.5v34.8h-20.6c-16.1 0-19.3 7.7-19.3 18.9v24.8h38.5l-5 38.9h-33.5v99.8H248c7.9 0 14.2-6.4 14.2-14.2V18.8c.1-7.8-6.3-14.2-14.1-14.2z" id="icon-society-facebook-square"><g id="icon-society-facebook"><style type="text/css">.st0{fill:#FFFFFF;} .st1{fill-rule:evenodd;clip-rule:evenodd;} .st2{fill:#010101;} .st3{clip-path:url(#SVGID_2_);} .st4{fill:#000006;}</style><path id="9ceb3f6947a7b1b2f2bcff892255418bFacebook_1_" d="M11.4 6.4V11H8v5.6h3.4V32h6.9V16.6h4.6s.4-2.7.6-5.6h-5.2V7.2c0-.6.8-1.3 1.5-1.3h3.8V.1h-5.1c-7.3-.1-7.1 5.5-7.1 6.3z"></g><path d="M.264 48.47C.967 41.188 7 37.01 16.99 37.01c1.648 0 3.178.123 4.608.346-.96 1.388-1.676 2.945-2.135 4.655-.778-.06-1.6-.1-2.472-.1-7.41 0-11.5 2.34-11.94 6.91L4.87 51H.06l.206-2.53zM40.524 33c14.715 0 17.855 7.602 18.3 12.17l.118 5.83h-4.75l-.146-5.48c-.494-5.057-5.31-7.62-13.52-7.62-8.214 0-13.03 2.564-13.52 7.582l-.13 5.52h-4.822l.17-5.87C22.67 40.602 25.81 33 40.524 33M17.04 17.78c-1.22 0-5.2.35-5.2 4.868 0 3.808 2.188 6.57 5.2 6.57 3.014 0 5.2-2.762 5.2-6.57 0-4.518-3.98-4.87-5.2-4.87m0 16.22c-5.7 0-10-4.865-10-11.317 0-5.7 4.113-9.68 10-9.68 5.89 0 10 3.98 10 9.68 0 6.46-4.298 11.32-10 11.32m23.5-21.24c-2.135 0-5.72.7-5.72 5.34 0 4.14 2.407 7.148 5.72 7.148 3.316 0 5.722-3.006 5.722-7.146 0-4.642-3.584-5.335-5.72-5.335m0 17.24c-5.987 0-10.5-5.104-10.5-11.87C30.04 12.07 34.26 8 40.54 8s10.5 4.07 10.5 10.13c0 6.766-4.515 11.87-10.5 11.87" id="icon-society-family"><path d="M9 12c0-.552.448-1 1-1s1 .448 1 1-.446 1-1 1-1-.448-1-1zm6.2 0l-1.7 2.6-1.3-1.6L9 17h10l-3.8-5zM24 7v14H4v-3H0V3h21v4h3zM4 16V7h15V5H2v11h2zm18-7H6v10h16V9z" id="icon-society-gallery"><g id="icon-society-geolocate"><style type="text/css">.st0{fill:#FFFFFF;} .st1{fill-rule:evenodd;clip-rule:evenodd;} .st2{fill:#010101;} .st3{clip-path:url(#SVGID_2_);} .st4{fill:#000006;}</style><path d="M17 31.2h-2v-4.1c-5.8-1-9.1-4.3-10.1-10.1H.8v-2h4.1C5.5 9.5 9.8 5.4 15 4.9V.8h2v4.1c5.8 1 9.1 4.3 10.1 10.1h4.1v2h-4.1c-1 5.8-4.3 9.1-10.1 10.1v4.1zM25.1 16c0-5-4.1-9.1-9.1-9.1-5.1 0-9.1 4.1-9.1 9.1s4.1 9.1 9.1 9.1c5.1 0 9.1-4 9.1-9.1zM16 23.1c-4-.1-7.1-3.3-7.1-7.2 0-4 3.3-7.1 7.1-7 4 .1 7.1 3.3 7.1 7.2 0 3.9-3.3 7.1-7.1 7z"></g><path d="M16 0C9.5 0 4.2 5.3 4.2 11.8 4.2 18.4 9.3 22.4 16 32c6.8-9.6 11.8-13.6 11.8-20.2C27.8 5.3 22.5 0 16 0zm0 16.8c-2.5 0-4.5-2-4.5-4.5s2-4.5 4.5-4.5 4.5 2 4.5 4.5-2 4.5-4.5 4.5z" id="icon-society-globe"><path d="M8 11v2.4h3.97c-.16 1.03-1.2 3.02-3.97 3.02-2.39 0-4.34-1.98-4.34-4.42S5.61 7.58 8 7.58c1.36 0 2.27.58 2.79 1.08l1.9-1.83C11.47 5.69 9.89 5 8 5c-3.87 0-7 3.13-7 7s3.13 7 7 7c4.04 0 6.72-2.84 6.72-6.84 0-.46-.05-.81-.11-1.16H8zm15 0h-2V9h-2v2h-2v2h2v2h2v-2h2" id="icon-society-google-plus"><g id="icon-society-googleplus"><style type="text/css">.st0{fill:#FFFFFF;} .st1{fill-rule:evenodd;clip-rule:evenodd;} .st2{fill:#010101;} .st3{clip-path:url(#SVGID_2_);} .st4{fill:#000006;}</style><path class="st1" d="M18.3 20.6c.6.9.9 2.1 1 3.5 0 2-.9 3.8-2.7 5.4-1.8 1.6-4.5 2.5-7.9 2.5-2.9 0-5.1-.7-6.5-1.9C.7 29 0 27.6 0 26c0-.8.2-1.6.7-2.6.5-1 1.3-1.8 2.5-2.5 1.3-.8 2.7-1.3 4.2-1.6 1.5-.2 2.7-.3 3.6-.3-.3-.4-.6-.8-.8-1.3-.3-.4-.4-1-.4-1.6 0-.4.1-.7.2-.9.1-.3.2-.5.3-.7-.5.1-.9.1-1.3.1-2.2 0-3.9-.7-5-2.1C2.8 11.2 2.2 9.7 2.2 8c0-2.1.9-3.9 2.6-5.6C6 1.4 7.2.8 8.5.5c1-.4 2.2-.5 3.3-.5h8.3l-2.6 1.5H15c.3.2.6.4.9.7.3.3.6.7.9 1.2.3.5.5 1 .8 1.6.2.6.3 1.3.3 2.2 0 1.5-.4 2.7-1 3.6-.3.4-.6.8-1 1.2-.4.4-.8.7-1.2 1.1-.2.3-.5.6-.7.9-.2.3-.4.7-.4 1.2 0 .4.1.8.4 1.1.2.3.4.5.6.7l1.4 1.2c.9.7 1.6 1.5 2.3 2.4zM32 13h-4.4V8.6h-2.5V13h-4.4v2.6h4.4v4.5h2.5v-4.5H32V13zM13 4.1c-.4-.8-.9-1.5-1.5-2-.7-.5-1.4-.7-2.2-.8-1.1 0-2.1.5-2.8 1.4-.6.9-.9 2-.9 3.1 0 1.6.4 3.2 1.3 4.8.4.8 1 1.4 1.6 1.9.7.5 1.4.8 2.3.8 1.1 0 2-.4 2.7-1.2.3-.5.6-1.1.7-1.6.1-.6.1-1 .1-1.4 0-1.6-.4-3.3-1.3-5zm2.1 24.8c-1 .8-2.5 1.3-4.5 1.3-2.2 0-3.9-.5-5.1-1.5-1.3-1-2-2.2-2-3.6 0-.8.2-1.4.5-1.9s.6-.9 1-1.3c.4-.3.8-.6 1.2-.8.3-.1.6-.2.8-.3.9-.3 1.8-.5 2.6-.6.9-.1 1.4-.1 1.6-.1h.9c1.5 1.1 2.7 2 3.4 2.8.7.8 1 1.7 1 2.8.1 1.3-.4 2.4-1.4 3.2z"></g><path d="M0 5l2.977-5L6 5H0zm6 2H0v17h6V7zm7 10.303L14.13 19H13v-1.697zM12 14v6h4l-4-6zM8 0v24h16L8 0zm2 20h1v-1h-1v-2h1v-1h-1v-2h1v-1h-1v-2h1v-1h-1V6.974L20.392 22H10v-2z" id="icon-society-graphic"><path d="M6 6H0V0h6v6zm9-6H9v6h6V0zm9 0h-6v6h6V0zM6 9H0v6h6V9zm9 0H9v6h6V9zm9 0h-6v6h6V9zM6 18H0v6h6v-6zm9 0H9v6h6v-6zm9 0h-6v6h6v-6z" id="icon-society-grid-view"><g id="icon-society-heart"><style type="text/css">.st0{fill:#FFFFFF;} .st1{fill-rule:evenodd;clip-rule:evenodd;} .st2{fill:#010101;} .st3{clip-path:url(#SVGID_2_);} .st4{fill:#000006;}</style><path d="M16 29.8c-.3 0-11.9-11.3-11.9-11.3l-.5-.5c-.2-.2-.5-.6-1-1.2s-.9-1.1-1.2-1.7c-.4-.6-.7-1.3-1-2.2-.3-.7-.4-1.6-.4-2.4 0-2.6.8-4.7 2.3-6.1 1.5-1.5 3.6-2.2 6.3-2.2.7 0 1.5.1 2.3.4.8.3 1.5.6 2.1 1 .7.4 1.2.8 1.7 1.2.4.4.9.8 1.3 1.2.4-.4.9-.8 1.4-1.2.5-.4 1-.8 1.7-1.2.7-.4 1.4-.8 2.1-1 .8-.3 1.5-.4 2.3-.4 2.7 0 4.8.7 6.3 2.2 1.5 1.5 2.3 3.5 2.3 6.1 0 2.6-1.4 5.3-4.1 8-.1.1-11.7 11.3-12 11.3z"></g><g id="icon-society-hearthollow"><style type="text/css">.st0{fill:#FFFFFF;} .st1{fill-rule:evenodd;clip-rule:evenodd;} .st2{fill:#010101;} .st3{clip-path:url(#SVGID_2_);} .st4{fill:#000006;}</style><path d="M29.8 5.5c-1.5-1.5-3.6-2.2-6.3-2.2-.7 0-1.5.1-2.3.4-.8.3-1.5.6-2.1 1-.7.4-1.2.8-1.7 1.2-.5.4-.9.8-1.4 1.2-.4-.4-.9-.8-1.4-1.2-.5-.4-1-.8-1.7-1.2-.7-.4-1.4-.8-2.1-1-.8-.2-1.5-.4-2.3-.4-2.7 0-4.8.7-6.3 2.2C.8 7 0 9.1 0 11.7c0 .8.1 1.6.4 2.5.3.8.6 1.6 1 2.2.4.6.8 1.2 1.2 1.7.5.6.8 1 1 1.2l.5.5s11.6 11.3 12 11.3c.3 0 11.9-11.3 11.9-11.3 2.7-2.7 4.1-5.4 4.1-8-.1-2.7-.8-4.8-2.3-6.3zm-3.3 12.8c-4 3.9-8.4 8.1-10.5 10-2.1-1.9-6.5-6.2-10.6-10.1l-.1-.1-.1-.1c0 .1-.1 0-.2-.2-.1-.1-.3-.4-.9-1-.4-.5-.8-1-1.1-1.5-.3-.5-.5-1.1-.8-1.8-.1-.6-.2-1.2-.2-1.8 0-2.1.5-3.6 1.7-4.7 1.1-1.1 2.7-1.6 4.9-1.6.5 0 1.1.1 1.6.3.6.2 1.2.5 1.7.8.6.4 1.1.8 1.6 1.1.4.3.8.7 1.2 1.1L16 10l1.4-1.4c.4-.4.8-.7 1.2-1.1.4-.3.9-.7 1.6-1.1.5-.3 1.1-.6 1.7-.8.6-.2 1.1-.3 1.6-.3 2.1 0 3.7.5 4.9 1.6 1.1 1.1 1.7 2.6 1.7 4.7-.1 2.2-1.3 4.4-3.6 6.7z"></g><path d="M4.8 32V0h22.3v32H4.8zm19.1-3.2V3.2H8.1v25.6h15.8z" id="icon-society-historic-article"><path d="M20 7.093V2h-3v2.093l3 3zM24 13L12 1 0 13h3v10h7v-5h4v5h7V13h3zm-5 8h-3v-5H8v5H5V10.74l7-6.912 7 6.99V21z" id="icon-society-home"><path d="M22 8.51v1.372h-2.538c.02-.223.038-.448.038-.68 0-.238-.017-.465-.035-.69H22zM11.352 1.957V0h1.37v1.964c-.24-.022-.483-.035-.725-.035-.215 0-.43.01-.645.027zm5.52 1.544l1.57-1.742 1.02.918-1.603 1.777c-.25-.297-.594-.672-.987-.952zm-10.737.953L4.532 2.676l1.02-.918L7.12 3.5c-.393.28-.737.656-.987.953zm-1.597 5.43H2V8.51h2.535c-.018.226-.035.454-.035.69 0 .234.018.46.038.682zM14 19h-4c-.276 0-.5.224-.5.5s.224.5.5.5h4c.276 0 .5-.224.5-.5s-.224-.5-.5-.5zm0 2h-4c-.276 0-.5.224-.5.5s.224.5.5.5h4c.276 0 .5-.224.5-.5s-.224-.5-.5-.5zm.25 2h-4.5l1.188.782c.154.138.38.218.615.218h.895c.234 0 .46-.08.615-.218L14.25 23zM18 9.2c0 3.57-3.214 5.984-3.214 8.8h-1.99c-.002-1.858.87-3.39 1.722-4.867C15.278 11.808 16 10.556 16 9.2c0-2.59-2.075-3.77-4.003-3.77C10.072 5.43 8 6.61 8 9.2c0 1.356.72 2.608 1.482 3.933.85 1.478 1.725 3.01 1.72 4.867H9.214C9.214 15.184 6 12.77 6 9.2c0-3.722 2.998-5.77 5.997-5.77 3 0 6.003 2.05 6.003 5.77z" id="icon-society-idea"><path d="M8.997 13.985c.01 1.104-.88 2.008-1.986 2.015-1.104.01-2.004-.88-2.01-1.984-.01-1.105.88-2.005 1.982-2.016 1.106-.007 2.01.883 2.015 1.985zM8.02 10c-1.105.007-2.01-.88-2.016-1.988-.01-1.103.877-2.004 1.984-2.01C9.09 5.99 9.996 6.877 10 7.98 10.012 9.09 9.12 9.99 8.02 10zM16 5.984c.004 1.102-.88 2.008-1.985 2.015-1.106.01-2.008-.88-2.015-1.983-.01-1.106.878-2.006 1.985-2.015 1.1-.006 2.005.88 2.015 1.983zM4 21.832c4.587.38 2.944-4.492 7.188-4.537l1.838 1.534C13.484 24.365 6.71 25.6 4 21.83zm14.065-7.115c1.427-2.24 5.846-9.748 5.846-9.748.354-.624-.428-1.274-.974-.814 0 0-6.572 5.714-8.51 7.525-1.533 1.433-1.54 2.087-2.036 4.448l1.68 1.4c2.227-.915 2.868-1.04 3.995-2.81zM5.443 19.523c-2.084-1.82-3.42-4.48-3.443-7.447C1.956 6.566 6.406 2.046 11.92 2c3.838-.02 6.48 1.906 6.496 3.448l1.663-1.456C19.07 1.77 15.896-.053 11.902 0 5.28.055-.052 5.466 0 12.092c.023 2.912 1.083 5.57 2.823 7.635.958.492 2.123.33 2.62-.204zm12.797-1.906c1.06 1.97-1.35 3.37-3.545 3.992-.304.91-.803 1.72-1.374 2.31 5.256-.59 9.062-4.304 6.267-7.89-.46.686-.897 1.198-1.347 1.587z" id="icon-society-illustration"><path d="M5 8.5C5 7.672 5.672 7 6.5 7S8 7.672 8 8.5c0 .83-.672 1.5-1.5 1.5S5 9.33 5 8.5zm9 .5l-2.52 4L9 11.04 5 17h14l-5-8zm8-4v14H2V5h20zm2-2H0v18h24V3z" id="icon-society-image"><path d="M12 2c5.514 0 10 4.486 10 10s-4.486 10-10 10S2 17.514 2 12 6.486 2 12 2zm0-2C5.373 0 0 5.373 0 12s5.373 12 12 12 12-5.373 12-12S18.627 0 12 0zm0 5.75c.69 0 1.25.56 1.25 1.25S12.69 8.25 12 8.25 10.75 7.69 10.75 7s.56-1.25 1.25-1.25zM14 18h-4v-1c.484-.18 1-.2 1-.735v-4.467c0-.534-.516-.618-1-.797v-1h3v6.267c0 .535.517.558 1 .735v1z" id="icon-society-info-circle"><g id="icon-society-instagram"><path d="M16 2.9c4.3 0 4.8 0 6.5.1 1 0 2 .2 3 .5.7.3 1.3.7 1.8 1.2s.9 1.1 1.2 1.8c.4 1 .5 2 .5 3 .1 1.7.1 2.2.1 6.5s0 4.8-.1 6.5c0 1-.2 2-.5 3-.5 1.4-1.6 2.5-3 3-1 .4-2 .5-3 .5-1.7.1-2.2.1-6.5.1s-4.8 0-6.5-.1c-1 0-2-.2-3-.5-.7-.3-1.3-.7-1.8-1.2s-.9-1.1-1.2-1.8c-.4-1-.5-2-.5-3-.1-1.7-.1-2.2-.1-6.5s0-4.8.1-6.5c0-1 .2-2 .5-3 .3-.7.7-1.3 1.2-1.8s1.1-.9 1.8-1.2c1-.4 2-.5 3-.5 1.8-.1 2.3-.2 6.5-.1M16 0c-4.4 0-4.9 0-6.6.1-1.3 0-2.6.3-3.9.7-1.1.4-2 1-2.8 1.9-.8.8-1.5 1.8-1.9 2.8C.4 6.8.1 8.1.1 9.4 0 11.1 0 11.6 0 16s0 4.9.1 6.6c0 1.3.3 2.6.7 3.9.4 1.1 1 2 1.9 2.8.8.8 1.8 1.4 2.8 1.9 1.2.5 2.6.7 3.9.7 1.7.1 2.2.1 6.6.1s4.9 0 6.6-.1c1.3 0 2.6-.3 3.9-.7 2.1-.8 3.8-2.5 4.7-4.7.5-1.2.7-2.6.7-3.9.1-1.7.1-2.3.1-6.6s0-4.9-.1-6.6c0-1.3-.3-2.6-.7-3.9-.4-1.1-1-2-1.9-2.8-.8-.8-1.8-1.4-2.8-1.8-1.2-.5-2.6-.7-3.9-.7C20.9 0 20.4 0 16 0zM16 7.8c-4.5 0-8.2 3.7-8.2 8.2s3.7 8.2 8.2 8.2 8.2-3.7 8.2-8.2c0-4.5-3.7-8.2-8.2-8.2zm0 13.5c-2.9 0-5.3-2.4-5.3-5.3s2.4-5.3 5.3-5.3 5.3 2.4 5.3 5.3-2.4 5.3-5.3 5.3z"><circle cx="24.5" cy="7.5" r="1.9"></g><path d="M13.744 8s1.522-8-3.335-8H2v24h20V11c0-3.42-5.247-3.745-8.256-3zM8 19H7v-1h1v1zm0-2H7v-1h1v1zm0-2H7v-1h1v1zm0-2H7v-1h1v1zm7 6H9v-3h6v3zm0-4H9v-3h6v3zm2 4h-1v-1h1v1zm0-2h-1v-1h1v1zm0-2h-1v-1h1v1zm0-2h-1v-1h1v1zM14.568.075C16.77 1.25 20.506 4.958 22 6.955c-1.286-.9-4.044-1.656-6.09-1.178.22-1.468-.186-4.534-1.342-5.702z" id="icon-society-interactive"><path d="M16 0H2v24h20V6l-6-6zm0 3l3 3h-3V3zM4 22V2h10v6h6v14H4z" id="icon-society-internal-resource"><path d="M12 4.706C9.062 2.876 4.584 2.14 0 2v17.714c3.937.12 7.795.68 10.667 1.995.846.387 1.817.387 2.667 0 2.872-1.315 6.73-1.876 10.666-1.996V2c-4.584.14-9.062.876-12 2.706zM2 17.81V4.106c5.157.39 7.527 1.463 9 2.334v13.168c-1.525-.546-4.716-1.504-9-1.798zm20 0c-4.283.293-7.475 1.252-9 1.8V6.437c1.453-.86 3.83-1.942 9-2.332V17.81zM20 7.596c-2.086.312-4.45 1.023-6 1.672V8.204c1.668-.622 3.88-1.315 6-1.626v1.018zm0 3.055c-2.12.312-4.332 1.005-6 1.627v1.064c1.55-.648 3.914-1.36 6-1.672V10.65zm0-2.03c-2.12.31-4.332 1.004-6 1.626v1.064c1.55-.65 3.914-1.36 6-1.673V8.62zm0 6.093c-2.12.31-4.332 1.004-6 1.626v1.063c1.55-.65 3.914-1.36 6-1.673v-1.017zm0-2.03c-2.12.31-4.332 1.003-6 1.625v1.064c1.55-.65 3.914-1.36 6-1.673V12.68zM4 6.577c2.12.31 4.332 1.004 6 1.626v1.064c-1.55-.65-3.914-1.36-6-1.672V6.578zm0 5.09c2.086.312 4.45 1.023 6 1.673v-1.063c-1.668-.622-3.88-1.315-6-1.626v1.018zm0-2.03c2.086.31 4.45 1.022 6 1.672v-1.064C8.332 9.624 6.12 8.93 4 8.62v1.017zm0 6.092c2.086.312 4.45 1.023 6 1.673V16.34c-1.668-.623-3.88-1.316-6-1.627v1.017zm0-2.03c2.086.31 4.45 1.022 6 1.672v-1.064c-1.668-.622-3.88-1.315-6-1.626V13.7z" id="icon-society-lesson"><g id="icon-society-lightarrowdown"><style type="text/css">.st0{fill:#FFFFFF;} .st1{fill-rule:evenodd;clip-rule:evenodd;} .st2{fill:#010101;} .st3{clip-path:url(#SVGID_2_);} .st4{fill:#000006;}</style><path d="M15.5 0v30.1L.7 15.3 0 16l16 16 16-16-.7-.7-14.8 14.8V0z"></g><g id="icon-society-lightarrowleft"><style type="text/css">.st0{fill:#FFFFFF;} .st1{fill-rule:evenodd;clip-rule:evenodd;} .st2{fill:#010101;} .st3{clip-path:url(#SVGID_2_);} .st4{fill:#000006;}</style><path d="M32 15.5H1.9L16.7.7 16 0 0 16l16 16 .7-.7L1.9 16.5H32z"></g><g id="icon-society-lightarrowne"><style type="text/css">.st0{fill:#FFFFFF;} .st1{fill-rule:evenodd;clip-rule:evenodd;} .st2{fill:#010101;} .st3{clip-path:url(#SVGID_2_);} .st4{fill:#000006;}</style><path d="M3.6 27.4l26-26H0V0h32v32h-1.4V2.4l-26 26z"></g><g id="icon-society-lightarrowright"><style type="text/css">.st0{fill:#FFFFFF;} .st1{fill-rule:evenodd;clip-rule:evenodd;} .st2{fill:#010101;} .st3{clip-path:url(#SVGID_2_);} .st4{fill:#000006;}</style><path d="M0 16.5h30.1L15.3 31.3l.7.7 16-16L16 0l-.7.7 14.8 14.8H0z"></g><g id="icon-society-lightarrowup"><style type="text/css">.st0{fill:#FFFFFF;} .st1{fill-rule:evenodd;clip-rule:evenodd;} .st2{fill:#010101;} .st3{clip-path:url(#SVGID_2_);} .st4{fill:#000006;}</style><path d="M16.5 32V1.9l14.8 14.8.7-.7L16 0 0 16l.7.7L15.5 1.9V32z"></g><g id="icon-society-lightboxarrowne"><style type="text/css">.st0{fill:#FFFFFF;} .st1{fill-rule:evenodd;clip-rule:evenodd;} .st2{fill:#010101;} .st3{clip-path:url(#SVGID_2_);} .st4{fill:#000006;}</style><path d="M15 16l1 1L30.6 2.4V19H32V0H13v1.4h16.6zM30.6 30.6H1.4V1.4H7V0H0v32h32v-7h-1.4z"></g><g id="icon-society-lightclose"><style type="text/css">.st0{fill:#FFFFFF;} .st1{fill-rule:evenodd;clip-rule:evenodd;} .st2{fill:#010101;} .st3{clip-path:url(#SVGID_2_);} .st4{fill:#000006;}</style><path d="M16 16.7L5.2 27.5l-.7-.7L15.3 16 4.5 5.2l.7-.7L16 15.3 26.8 4.5l.7.7L16.7 16l10.8 10.8-.7.7z"></g><g id="icon-society-lightdirectiondown"><style type="text/css">.st0{fill:#FFFFFF;} .st1{fill-rule:evenodd;clip-rule:evenodd;} .st2{fill:#010101;} .st3{clip-path:url(#SVGID_2_);} .st4{fill:#000006;}</style><path d="M0 8.7L.7 8 16 23.3 31.3 8l.7.7-16 16z"></g><g id="icon-society-lightdirectionleft"><style type="text/css">.st0{fill:#FFFFFF;} .st1{fill-rule:evenodd;clip-rule:evenodd;} .st2{fill:#010101;} .st3{clip-path:url(#SVGID_2_);} .st4{fill:#000006;}</style><path d="M23.3 0l.7.7L8.7 16 24 31.3l-.7.7-16-16z"></g><g id="icon-society-lightdirectionright"><style type="text/css">.st0{fill:#FFFFFF;} .st1{fill-rule:evenodd;clip-rule:evenodd;} .st2{fill:#010101;} .st3{clip-path:url(#SVGID_2_);} .st4{fill:#000006;}</style><path d="M8.7 32l-.7-.7L23.3 16 8 .7l.7-.7 16 16z"></g><g id="icon-society-lightdirectionup"><style type="text/css">.st0{fill:#FFFFFF;} .st1{fill-rule:evenodd;clip-rule:evenodd;} .st2{fill:#010101;} .st3{clip-path:url(#SVGID_2_);} .st4{fill:#000006;}</style><path d="M32 23.3l-.7.7L16 8.7.7 24l-.7-.7 16-16z"></g><g id="icon-society-linkedin"><style type="text/css">.st0{fill:#FFFFFF;} .st1{fill-rule:evenodd;clip-rule:evenodd;} .st2{fill:#010101;} .st3{clip-path:url(#SVGID_2_);} .st4{fill:#000006;}</style><path d="M.5 10.6h6.6V32H.5V10.6zM3.8 0C6 0 7.7 1.7 7.7 3.8 7.7 6 6 7.7 3.8 7.7 1.7 7.7 0 6 0 3.8 0 1.7 1.7 0 3.8 0"><path d="M11.3 10.6h6.4v2.9h.1c.9-1.7 3-3.4 6.3-3.4 6.7 0 8 4.4 8 10.2V32h-6.6V21.6c0-2.5 0-5.7-3.4-5.7-3.5 0-4 2.7-4 5.5V32h-6.6V10.6z"></g><path d="M4 22H0v-4h4v4zm0-12H0v4h4v-4zm0-8H0v4h4V2zm3 0v4h17V2H7zm0 12h17v-4H7v4zm0 8h17v-4H7v4z" id="icon-society-list-ul"><path d="M24 6H0V2h24v4zm0 4H0v4h24v-4zm0 8H0v4h24v-4z" id="icon-society-list-view"><path d="M16 0C9.5 0 4.2 5.3 4.2 11.8 4.2 18.4 9.3 22.4 16 32c6.8-9.6 11.8-13.6 11.8-20.2C27.8 5.3 22.5 0 16 0zm0 16.8c-2.5 0-4.5-2-4.5-4.5s2-4.5 4.5-4.5 4.5 2 4.5 4.5-2 4.5-4.5 4.5z" id="icon-society-map-marker"><path d="M12 0C8.852 0 6 2.553 6 5.702 6 10.384 10.783 10.88 12 18c1.217-7.12 6-7.616 6-12.298C18 2.552 15.15 0 12 0zm0 8c-1.105 0-2-.895-2-2s.895-2 2-2 2 .895 2 2-.895 2-2 2zm12 16l-6.707-2.427L12 24l-5.58-2.427L0 24l4-9 3.96-1.584c.38.516.74 1.08 1.06 1.73l-3.52 1.41-1.725 3.88 2.672-1.01 1.506-2.69-.634 3.045 4.19 1.79.49-2.02.463 2.026 4.15-1.89-.618-3.033 1.572 2.898 2.73.99-1.74-3.98-3.58-1.413c.32-.65.68-1.215 1.06-1.73L20.067 15 24 24z" id="icon-society-map"><path d="M17.492 15.432c-.433 0-.855-.087-1.253-.26l.466-1.08c.25.106.514.16.786.16.222 0 .44-.036.65-.11l.39 1.113c-.335.118-.684.177-1.04.177zM6.57 15.41c-.373 0-.74-.066-1.093-.195l.407-1.105c.22.08.45.122.686.122.26 0 .514-.05.754-.148l.447 1.09c-.38.157-.785.236-1.2.236zm8.67-.783l-1.66-.945.584-1.024 1.66.945-.584 1.024zm-6.455-.02l-.605-1.01 1.64-.982.604 1.01-1.64.982zm3.918-1.408c-.243-.102-.5-.154-.764-.154-.23 0-.458.04-.675.12l-.4-1.11c.345-.124.707-.187 1.074-.187.42 0 .83.08 1.216.243l-.453 1.086zm7.327-.164c-.534 0-.968.433-.968.968 0 .535.434.968.968.968.535 0 .97-.434.97-.968 0-.535-.435-.968-.97-.968zm-16.06 0c-.536 0-.97.433-.97.968 0 .535.434.968.97.968s.968-.434.968-.968c0-.535-.434-.968-.97-.968zM22 12.204v6.683l-4 2.48V17h-1v4.14l-4-2.884V15h-2v3.255L7 21.14V17H6v4.365l-4-2.48V5.593l4 2.48V12h1V8.073l4-2.886V10h2V5.187l1.577 1.138C14.237 5.625 14 4.807 14 3.8l.02-.344L12 2 6.455 6 0 2v18l6.455 4L12 20l5.545 4L24 20V8.382l-.04.047c-.83.98-1.613 1.917-1.96 3.774zM24 3.8C24 1.703 22.1 0 20 0s-4 1.702-4 3.8c0 3.122 3.188 3.452 4 8.2.812-4.748 4-5.078 4-8.2zm-5.5.2c0-.83.672-1.5 1.5-1.5s1.5.67 1.5 1.5-.672 1.5-1.5 1.5-1.5-.67-1.5-1.5zm-.548 8c-.212-.992-.547-1.724-.952-2.334V12h.952z" id="icon-society-mapmaker-interactive"><path d="M18 11c-3.313 0-6 2.687-6 6s2.687 6 6 6 6-2.687 6-6-2.687-6-6-6zm-2.888 7.858c.28-.2.147-.446-.025-.65-.073-.085-.474-.5-.52-.425.035-.113-.072-.386-.136-.494-.107-.182-.25-.293-.308-.492-.022-.08-.022-.32-.07-.375l-.157-.117c.14-.828.522-1.572 1.075-2.16l.373-.15c.234-.352.247-.08.458-.17.07 0 .15-.29.227-.334.13-.084.03-.084.006-.123-.05-.084 1.096-.502 1.115-.427.016.063-.567.368-.503.358-.148.02-.176.287-.148.285.074-.002.537-.352.753-.277.21.073.59-.168.74-.29.075-.063.144-.173.242-.173.455 0 1.134.188 1.29.28.237.14-.102.13-.14.223l-.124.206c-.05.066-.2.038-.17-.04.03-.084.174-.116-.043-.136-.222-.02-.284-.17-.506.017-.068.056-.118.143-.162.216l-.272.2c-.06.095.035.255.152.184.03-.02.382.322.337.048-.03-.183.098-.307.1-.444.002-.09.14-.033.104.015-.05.06-.103.267.024.277.055.004.212-.115.23-.026-.026-.086-.177.176-.167.172-.054.024-.117-.01-.075.105.037.114-.204.1-.248.124-.018.01-.208-.057-.204-.014l-.036-.21c-.055.083-.03.255-.147.255-.1 0-.24.115-.3.185-.044.048-.306.153-.334.15.15.016.143.125.13.22-.03.215-.498.015-.478.097.02.08-.054.293-.07.362-.015.06.2.102.188.133l.32-.125.065-.147.175-.088.074-.13c.025-.01.323-.055.344-.045.076.034.214.177.266.242l.114.093-.003.11c.052.098.066-.2.044-.144 0-.096.07.034.087.023l-.33-.327c-.1-.17.273.09.322.123.046.03.14.313.267.25l.053-.115.225-.044c-.178.13.14.302.09.28l.178-.012c.028.01.332.007.283-.04.076.037.04.373-.022.424-.102.084-.59.05-.7-.03-.18-.13-.148.14-.236.177-.17.07-.43-.232-.61-.242.088.014.01-.223.01-.238-.07-.086-.51.01-.627.025-.216.03-.443.026-.61.162l-.238.325-.228.095c-.117.11-.25.276-.317.422l.02.286c-.153.483.038 1.154.625 1.228.143.018.29.095.434.052.115-.035.216-.113.34-.122.17-.01.1.24.334.172.114-.034.166.078.166.163-.038.177-.122.276.04.4.11.085.202.208.222.354.012.083.09.225-.006.273-.068.034-.118.23-.117.295.014.075.166.22.21.282l.073.3.146.294c.05.147.436-.003.525-.003.305.002.46-.43.675-.562l.23-.385c.136-.098.278-.157.29-.337.01-.155-.118-.48-.047-.614.085-.157.985-1.43.717-1.493l-.38.18c-.074.006-.357-.3-.43-.375-.14-.138-.2-.384-.313-.552-.066-.1-.267-.294-.267-.417.01.02.093.163.132.133l.007-.07c-.002.038.235.31.286.34l.23.34c.217.167.157.644.477.354.214-.193.633-.56.52-.896-.058-.177-.33-.046-.412.017-.09-.047-.415-.402-.287-.45.063-.02.202.165.252.193l.238-.003c.068.143.52-.147.625-.105.07.027.126.085.15.157.075.23.15.665.15 1.096 0 2.3-1.865 4.162-4.163 4.162-1.184 0-2.25-.494-3.008-1.286-.09-.094-.158-.318-.01-.41l.152-.038c.116-.096-.112-.5-.022-.566zm4.877-3.974c.18.064.015.188-.09.16-.056-.017-.35-.106-.36.01 0 .068-.28 0-.237-.073l.076-.23c.08-.106.156-.05.158.012 0 .163.165-.154.256-.165l-.044.07c.013.105.09.164.24.217zm-9.93 3.05L7 20.14V7.074l4-2.886v8.942c.507-.917 1.19-1.72 2-2.37V4.186l4 2.886V9.07c.328-.042.66-.07 1-.07V7.07l4-2.478v5.486c.754.437 1.428.992 2 1.642V1l-6.455 4L12 1 6.455 5 0 1v18l6.455 4 4.137-2.984c-.266-.656-.448-1.354-.533-2.082zM6 20.364l-4-2.478V4.592l4 2.48v13.293z" id="icon-society-mapmaker-kit"><g id="icon-society-mapmarker"><style type="text/css">.st0{fill:#FFFFFF;} .st1{fill-rule:evenodd;clip-rule:evenodd;} .st2{fill:#010101;} .st3{clip-path:url(#SVGID_2_);} .st4{fill:#000006;}</style><path d="M16 0C9.5 0 4.2 5.3 4.2 11.8 4.2 18.4 9.3 22.4 16 32c6.8-9.6 11.8-13.6 11.8-20.2C27.8 5.3 22.5 0 16 0zm0 16.8c-2.5 0-4.5-2-4.5-4.5s2-4.5 4.5-4.5 4.5 2 4.5 4.5-2 4.5-4.5 4.5z"></g><g id="icon-society-mediumlogo"><path d="M-38.5-29.5h1270v1254h-1270v-1254z" stroke="#fff"><path d="M758.7 188.9c-4.5-2.3-8.3 0-8.3 5.1v625.5l273.9 137c13.6 6.8 24.8-.1 24.8-15.3V339c0-3-1.7-5.7-4.4-7.1l-286-143z" fill="#d0d2d3"><path d="M451.7 670.4l293.9-477.5c2.7-4.3 8.6-6 13.1-3.7L1042.6 331c3.5 1.8 4.8 6.2 2.7 9.6L750.4 819.7 451.7 670.4z" fill="#a6a8ab"><path d="M186.1 201.5c-18.2-9.1-24.4-2.4-13.7 15l279.3 453.9 298.7 149.4-296.8-482.4c-1.3-2.1-3.1-3.7-5.2-4.8L186.1 201.5z" fill="#808184"><path d="M451.7 941.3c0 15.3-11.2 22.2-24.8 15.3L169.5 828c-9.1-4.5-16.5-16.6-16.5-26.8V203.4c0-10.2 7.4-14.8 16.5-10.2L448 332.5c2.3 1.1 3.7 3.4 3.7 6v602.8z" fill="#59595b"></g><path d="M22 1v2h-2V1h-2v4H6V1H4v2H2V1H0v22h2v-2h2v2h2v-4h12v4h2v-2h2v2h2V1h-2zM4 19H2v-2h2v2zm0-4H2v-2h2v2zm0-4H2V9h2v2zm0-4H2V5h2v2zm6 8V9l5 3-5 3zm12 4h-2v-2h2v2zm0-4h-2v-2h2v2zm0-4h-2V9h2v2zm0-4h-2V5h2v2z" id="icon-society-multimedia"><path d="M4.8 32V0h22.3v32H4.8zm19.1-3.2V3.2H8.1v25.6h15.8z" id="icon-society-ngs"><path d="M13.744 8s1.522-8-3.335-8H2v24h20V11c0-3.42-5.247-3.745-8.256-3zM8 19H7v-1h1v1zm0-2H7v-1h1v1zm0-2H7v-1h1v1zm0-2H7v-1h1v1zm7 6H9v-3h6v3zm0-4H9v-3h6v3zm2 4h-1v-1h1v1zm0-2h-1v-1h1v1zm0-2h-1v-1h1v1zm0-2h-1v-1h1v1zM14.568.075C16.77 1.25 20.506 4.958 22 6.955c-1.286-.9-4.044-1.656-6.09-1.178.22-1.468-.186-4.534-1.342-5.702z" id="icon-society-other-media"><path d="M16 0H2v24h20V6l-6-6zm0 3l3 3h-3V3zM4 22V2h10v6h6v14H4z" id="icon-society-page"><path d="M11.362 2C15.518 2 14 8 14 8s6-1.65 6 2.457V22H4V2h7.362zm.827-2H2v24h20V9.614C22 7.224 15.352 0 12.19 0zM8.447 17.26c.346-.326.932-.646 1.742-.953.366-.725.73-1.523 1.018-2.232-.242-.506-.397-1.04-.464-1.588-.25-2.06 2.083-1.907 1.73.012-.07.367-.23.883-.484 1.535.367.654.85 1.146 1.233 1.472.524-.084 1.27-.17 1.797-.093 1.396.205 1.22 1.744-.02 1.744-.65 0-1.464-.507-1.973-.896-.78.144-1.613.365-2.33.618-.23.44-.536 1-.81 1.396-1.144 1.646-2.65.127-1.44-1.015zm1.2.056c-.254.128-.61.348-.802.56-.3.327-.103.585.257.232.178-.172.392-.492.544-.792zm4.44-1.2c.234.157.557.322.91.33.412.007.377-.262-.082-.33-.2-.03-.488-.03-.83 0zm-2.948-.13c.328-.108 1.036-.273 1.213-.314-.02-.02-.528-.544-.695-.832-.134.335-.51 1.127-.518 1.147zm.314-3.982c-.057.296.03.77.13 1.06.112-.236.254-.805.196-1.084-.056-.28-.262-.3-.326.024z" id="icon-society-pdf"><path d="M12 2c5.5 0 10 4.5 10 10s-4.5 10-10 10S2 17.5 2 12 6.5 2 12 2zm0-2C5.4 0 0 5.4 0 12s5.4 12 12 12 12-5.4 12-12S18.6 0 12 0zm4.5 17.3l-1.8-3.4-1 .5c-1.1.5-3.4-3.9-2.3-4.5l1-.5L10.7 6l-1.1.5c-3.6 1.9 2.1 13 5.8 11.3l1.1-.5z" id="icon-society-phone"><path d="M5 8.5C5 7.672 5.672 7 6.5 7S8 7.672 8 8.5c0 .83-.672 1.5-1.5 1.5S5 9.33 5 8.5zm9 .5l-2.52 4L9 11.04 5 17h14l-5-8zm8-4v14H2V5h20zm2-2H0v18h24V3z" id="icon-society-photo"><g id="icon-society-pinterest"><style type="text/css">.st0{fill:#FFFFFF;} .st1{fill-rule:evenodd;clip-rule:evenodd;} .st2{fill:#010101;} .st3{clip-path:url(#SVGID_2_);} .st4{fill:#000006;}</style><path d="M13.8 21.2c-.8 4.4-1.9 8.6-4.9 10.8-.9-6.7 1.4-11.7 2.5-17-1.8-3.1.2-9.3 4.1-7.8 4.8 1.9-4.1 11.5 1.8 12.7 6.2 1.3 8.8-10.8 4.9-14.7-5.6-5.7-16.2-.1-14.9 8 .3 2 2.4 2.6.8 5.3-3.6-.8-4.6-3.6-4.5-7.4C3.8 5 9.1.7 14.4.1c6.7-.8 13 2.5 13.9 8.8 1 7.1-3 14.9-10.2 14.3-2-.1-2.8-1.1-4.3-2z"></g><g id="icon-society-play"><style type="text/css">.st0{fill:#FFFFFF;} .st1{fill-rule:evenodd;clip-rule:evenodd;} .st2{fill:#010101;} .st3{clip-path:url(#SVGID_2_);} .st4{fill:#000006;}</style><path d="M2 0v32l28-16L2 0z"></g><g id="icon-society-print"><style type="text/css">.st0{fill:#FFFFFF;} .st1{fill-rule:evenodd;clip-rule:evenodd;} .st2{fill:#010101;} .st3{clip-path:url(#SVGID_2_);} .st4{fill:#000006;}</style><path d="M30 8.8h-4V6l-4-4H6v6.8H2V25h4v5h20v-5h4V8.8zM8 4h13.2L24 6.8v2H8V4zm16 21v3H8v-9h16v6zm4-2h-2v-6H6v6H4V12.8h24V23zM10 21h12v2H10zM10 24h12v2H10z"></g><path d="M12 2c5.514 0 10 4.486 10 10s-4.486 10-10 10S2 17.514 2 12 6.486 2 12 2zm0-2C5.373 0 0 5.373 0 12s5.373 12 12 12 12-5.373 12-12S18.627 0 12 0zm1.25 17c0 .69-.56 1.25-1.25 1.25s-1.25-.56-1.25-1.25.56-1.25 1.25-1.25 1.25.56 1.25 1.25zm1.393-9.998c-.608-.616-1.515-.955-2.55-.955-2.18 0-3.59 1.55-3.59 3.95h2.01c0-1.486.83-2.013 1.538-2.013.636 0 1.31.42 1.366 1.226.062.847-.39 1.277-.962 1.82-1.412 1.344-1.438 1.994-1.432 3.47h2.006c-.013-.665.03-1.204.935-2.18.678-.73 1.52-1.637 1.537-3.02.01-.925-.284-1.72-.854-2.298z" id="icon-society-question-circle"><path d="M1.44 16.873L0 24l7.128-1.437L24 5.69 18.31 0 1.44 16.874zm4.7 3.848l-3.58.725.72-3.584 2.86 2.86zM21.173 5.69L7.555 19.306l-2.86-2.86L15.52 5.62l2.846 2.846 1.414-1.414-2.846-2.846L18.31 2.83l2.862 2.86z" id="icon-society-quiz"><g id="icon-society-remove"><style type="text/css">.st0{fill:#FFFFFF;} .st1{fill-rule:evenodd;clip-rule:evenodd;} .st2{fill:#010101;} .st3{clip-path:url(#SVGID_2_);} .st4{fill:#000006;}</style><path d="M0 15h32v2H0z"></g><g id="icon-society-search"><title>icon-society</title><path d="M31.9 30.27l-7.49-7.37a13.77 13.77 0 1 0-1.74 1.7l7.52 7.4zM2.13 13.85a11.82 11.82 0 1 1 11.82 11.81A11.83 11.83 0 0 1 2.13 13.85z"></g><path d="M15.975 0l-5.462 5.135 1.133 1.12L15 2.99V20h2V2.99l3.347 3.262 1.077-1.12L15.974 0zM19 10v2h6v18H7V12h6v-2H5v22h22V10h-8z" id="icon-society-share"><path d="M51.175 16.017L48.7 18.492 39.506 9.3l2.475-2.474c.28-.28.66-.435 1.06-.435.41 0 .78.16 1.07.44l7.07 7.07c.28.28.44.66.44 1.06s-.156.78-.436 1.06m3.535-5.65L47.65 3.3c-1.23-1.223-2.86-1.9-4.6-1.9s-3.37.677-4.597 1.9l-6.01 6.01L48.7 25.57l6.01-6.01c1.226-1.23 1.9-2.86 1.9-4.6 0-1.74-.674-3.37-1.9-4.6M23.208 43.985l-10.29 3.465-2.368-2.37 3.46-10.29 19.13-19.13-3.54-3.54L9.64 32.08 1.39 56.61l24.523-8.26L45.87 28.392l-3.534-3.534-19.13 19.13zM17.77 40.227c.49.488 1.13.732 1.77.732.638 0 1.278-.25 1.766-.74l18.2-18.2-3.534-3.54-18.2 18.2c-.49.49-.733 1.128-.733 1.768 0 .64.24 1.28.73 1.767" id="icon-society-student"><path fill="none" stroke="#000" stroke-width="1.464" stroke-miterlimit="10" d="M1.1 15.7L15.9 1l2.6 2.6s-2.1 6 3.6 3.7L25 9.8 10.2 24.6l-2.6-2.4s1.9-6.1-3.6-3.8l-2.9-2.7zM14.4 7.1l4.5 4.5-7 7-4.6-4.7 7.1-6.8z" id="icon-society-ticket"><g id="icon-society-toggleoff"><style type="text/css">.st0{fill:#FFFFFF;} .st1{fill-rule:evenodd;clip-rule:evenodd;} .st2{fill:#010101;} .st3{clip-path:url(#SVGID_2_);} .st4{fill:#000006;}</style><path d="M22.7 6.4H9.3C4.2 6.4 0 10.6 0 15.7 0 20.9 4.2 25 9.3 25h13.4c5.1 0 9.3-4.2 9.3-9.3 0-5.1-4.2-9.3-9.3-9.3zm-13 17.1c-4.3 0-7.8-3.5-7.8-7.8s3.5-7.8 7.8-7.8 7.8 3.5 7.8 7.8c.1 4.3-3.4 7.8-7.8 7.8z"></g><g id="icon-society-toggleon"><style type="text/css">.st0{fill:#FFFFFF;} .st1{fill-rule:evenodd;clip-rule:evenodd;} .st2{fill:#010101;} .st3{clip-path:url(#SVGID_2_);} .st4{fill:#000006;}</style><path d="M9.3 6.4h13.4c5.1 0 9.3 4.2 9.3 9.3 0 5.1-4.2 9.3-9.3 9.3H9.3C4.2 25 0 20.9 0 15.7c0-5.1 4.2-9.3 9.3-9.3zm13 17.1c4.3 0 7.8-3.5 7.8-7.8s-3.5-7.8-7.8-7.8-7.8 3.5-7.8 7.8c-.1 4.3 3.4 7.8 7.8 7.8z"></g><g id="icon-society-twitter"><style type="text/css">.st0{fill:#FFFFFF;} .st1{fill-rule:evenodd;clip-rule:evenodd;} .st2{fill:#010101;} .st3{clip-path:url(#SVGID_2_);} .st4{fill:#000006;}</style><path d="M28.7 8.5v.8c0 8.7-6.6 18.6-18.6 18.6C6.3 28 2.9 27 0 25.1c.5.1 1 .1 1.6.1 3.1 0 5.9-1 8.1-2.8-2.8-.1-5.3-1.9-6.1-4.6.3.1.8.1 1.2.1.6 0 1.2-.1 1.7-.2-3-.6-5.2-3.3-5.2-6.5v-.1c.9.6 1.9.9 2.9.9-1.7-1.2-2.9-3.2-2.9-5.5 0-1.2.3-2.3.9-3.3 3.3 4 8.1 6.6 13.5 6.8-.1-.4-.2-1-.2-1.5 0-3.6 2.9-6.5 6.6-6.5 1.9 0 3.5.8 4.7 2 1.5-.3 2.9-.8 4.2-1.5-.5 1.5-1.5 2.8-2.8 3.6 1.3-.2 2.6-.6 3.8-1-.9 1.4-2.1 2.5-3.3 3.4z"></g><path d="M12 4.706C9.062 2.876 4.584 2.14 0 2v17.714c3.937.12 7.795.68 10.667 1.995.846.387 1.817.387 2.667 0 2.872-1.315 6.73-1.876 10.666-1.996V2c-4.584.14-9.062.876-12 2.706zM2 17.81V4.106c5.157.39 7.527 1.463 9 2.334v13.168c-1.525-.546-4.716-1.504-9-1.798zm20 0c-4.283.293-7.475 1.252-9 1.8V6.437c1.453-.86 3.83-1.942 9-2.332V17.81zM20 7.596c-2.086.312-4.45 1.023-6 1.672V8.204c1.668-.622 3.88-1.315 6-1.626v1.018zm0 3.055c-2.12.312-4.332 1.005-6 1.627v1.064c1.55-.648 3.914-1.36 6-1.672V10.65zm0-2.03c-2.12.31-4.332 1.004-6 1.626v1.064c1.55-.65 3.914-1.36 6-1.673V8.62zm0 6.093c-2.12.31-4.332 1.004-6 1.626v1.063c1.55-.65 3.914-1.36 6-1.673v-1.017zm0-2.03c-2.12.31-4.332 1.003-6 1.625v1.064c1.55-.65 3.914-1.36 6-1.673V12.68zM4 6.577c2.12.31 4.332 1.004 6 1.626v1.064c-1.55-.65-3.914-1.36-6-1.672V6.578zm0 5.09c2.086.312 4.45 1.023 6 1.673v-1.063c-1.668-.622-3.88-1.315-6-1.626v1.018zm0-2.03c2.086.31 4.45 1.022 6 1.672v-1.064C8.332 9.624 6.12 8.93 4 8.62v1.017zm0 6.092c2.086.312 4.45 1.023 6 1.673V16.34c-1.668-.623-3.88-1.316-6-1.627v1.017zm0-2.03c2.086.31 4.45 1.022 6 1.672v-1.064c-1.668-.622-3.88-1.315-6-1.626V13.7z" id="icon-society-unit"><g id="icon-society-user"><style type="text/css">.st0{fill:#FFFFFF;} .st1{fill-rule:evenodd;clip-rule:evenodd;} .st2{fill:#010101;} .st3{clip-path:url(#SVGID_2_);} .st4{fill:#000006;}</style><path d="M16 2.5C7.4 2.5.4 9.5.4 18.1c0 4.4 1.9 8.4 4.8 11.3 0-.5 0-1 .1-1.5 0-.5.1-1.1.2-1.7s.2-1.2.4-1.7.4-1 .7-1.5c.3-.5.6-.9 1-1.2.4-.3.8-.6 1.3-.8.5-.2 1.1-.3 1.7-.3.1 0 .3.1.6.3.3.2.7.5 1.1.7.4.3 1 .5 1.7.7.7.2 1.4.3 2.1.3.7 0 1.4-.1 2.1-.3.7-.2 1.2-.5 1.7-.7.4-.3.8-.5 1.1-.7s.6-.3.6-.3c.6 0 1.2.1 1.7.3.5.2 1 .5 1.3.8.4.3.7.8 1 1.2.3.5.5 1 .7 1.5.2.5.3 1.1.4 1.7s.2 1.2.2 1.7.1 1 .1 1.5c3-2.8 4.8-6.8 4.8-11.3C31.6 9.5 24.6 2.5 16 2.5zM20.2 20c-1.2 1.2-2.5 1.7-4.2 1.7-1.6 0-3-.6-4.2-1.7-1.2-1.2-1.7-2.5-1.7-4.2 0-1.6.6-3 1.7-4.2 1.2-1.2 2.5-1.7 4.2-1.7 1.6 0 3 .6 4.2 1.7 1.2 1.2 1.7 2.5 1.7 4.2 0 1.6-.6 3-1.7 4.2z"></g><path d="M2 0v32l28-16L2 0z" id="icon-society-video"><g id="icon-society-walker"><style type="text/css">.st0{fill:#FFFFFF;} .st1{fill-rule:evenodd;clip-rule:evenodd;} .st2{fill:#010101;} .st3{clip-path:url(#SVGID_2_);} .st4{fill:#000006;}</style><path class="st4" d="M24.3 16.5H20.6c-.7 0-1.2-.2-1.5-.8-.5-.8-1-1.6-1.6-2.4-.1-.1-.1-.2-.2-.3-.2 1-.4 1.9-.6 2.8-.3 1.1-.5 2.2-.7 3.2 0 .2 0 .3.2.4 1 .7 2 1.5 3.1 2.2.6.4.9.9 1 1.6.3 2 .7 4 1 6 .2.9-.4 1.8-1.3 1.9-.9.2-1.7-.4-1.8-1.3l-.9-5.4c0-.3-.1-.4-.4-.6l-4.8-3.3c-1.1-.8-1.5-1.8-1.2-3.2.7-2.6 1.3-5.2 2-7.8.1-1 .9-1.6 2.1-1.4l2.1.3c.6.1 1.1.4 1.5 1 .8 1.3 1.7 2.5 2.5 3.8.1.2.2.2.4.2H24.6c.1-.9.2-1.7.3-2.5 0-.4.3-.6.7-.6.8 0 .9.4.8 1-.4 2.8-.7 5.5-1.1 8.3-.4 3.4-.9 6.9-1.4 10.3 0 .3-.1.7-.1 1-.1.3-.3.5-.6.4-.3 0-.5-.2-.4-.6.1-1.1.2-2.2.4-3.3.2-1.6.3-3.2.5-4.7.2-1.8.4-3.5.6-5.3v-.9zM10.1 7c.4.1.7.1 1.1.2.5.1.8.6.7 1.1-.7 2.7-1.3 5.4-2 8.1-.1.2-.1.4-.2.7-.1.4-.6.7-1 .6-.8-.2-1.6-.4-2.5-.6-.5-.1-.7-.5-.6-1 .5-2 .9-4 1.4-6 .2-.6.4-1.2.7-1.7.5-.9 1.3-1.3 2.4-1.4zM10 20.3c.6 1 1.5 1.5 2.4 2.1.3.2.3.4.2.7-.6 2.3-1.2 4.6-1.8 7-.2.9-1.1 1.4-2 1.2-.9-.2-1.4-1.1-1.1-2 .8-2.9 1.5-5.7 2.3-8.6v-.4zM13.9 3.9c0-1.7 1.4-3.1 3.2-3.1 1.7 0 3.1 1.4 3.1 3.1 0 1.8-1.4 3.2-3.2 3.2-1.7-.1-3.1-1.5-3.1-3.2z"></g><g id="icon-society-whatsapp"><style type="text/css">.st0{fill:#FFFFFF;} .st1{fill-rule:evenodd;clip-rule:evenodd;} .st2{fill:#010101;} .st3{clip-path:url(#SVGID_2_);} .st4{fill:#000006;}</style><path class="st1" d="M27.2 4.7c-3-3-7-4.6-11.2-4.6C7.4.1.3 7.1.3 15.9c0 2.8.7 5.5 2.1 7.9L.2 32l8.4-2.2c2.3 1.3 4.9 1.9 7.6 1.9 8.7 0 15.8-7.1 15.8-15.8-.1-4.3-1.8-8.2-4.8-11.2zM16.1 29c-2.4 0-4.7-.6-6.7-1.8l-.5-.3-5 1.3 1.3-4.8-.3-.5c-1.3-2.1-2-4.5-2-7C2.9 8.7 8.8 2.8 16 2.8c3.5 0 6.8 1.4 9.3 3.9 2.5 2.5 3.8 5.8 3.8 9.3.1 7.1-5.8 13-13 13zm7.2-9.8c-.4-.2-2.3-1.2-2.7-1.3-.4-.1-.6-.2-.9.2-.3.4-1 1.3-1.2 1.5-.2.3-.5.3-.9.1-.4-.2-1.7-.6-3.2-2-1.2-1-2-2.3-2.2-2.7-.2-.4 0-.6.2-.8.2-.2.4-.5.6-.7.2-.2.3-.4.4-.7.1-.3.1-.5 0-.7-.1-.2-.9-2.1-1.2-2.9-.3-.8-.6-.7-.9-.7h-.8c-.3 0-.7.1-1.1.5-.3.4-1.4 1.4-1.4 3.3s1.4 3.8 1.6 4.1c.2.3 2.8 4.2 6.7 6 .9.4 1.7.7 2.3.8.9.3 1.8.3 2.5.2.8-.1 2.3-1 2.7-1.9.3-.9.3-1.7.2-1.9-.1-.1-.3-.2-.7-.4z"></g><g id="icon-society-youtube"><style type="text/css">.st0{fill:#FFFFFF;} .st1{fill-rule:evenodd;clip-rule:evenodd;} .st2{fill:#010101;} .st3{clip-path:url(#SVGID_2_);} .st4{fill:#000006;}</style><path id="d1f88a8aac6ebc62ecd721b68064a614u_2_" d="M24.3 11.9h-1.7v-1c-.6.7-1.2 1.1-1.8 1.1-.5 0-.9-.2-1.1-.7-.1-.3-.2-.7-.2-1.3V3h1.7V10.2c0 .2.1.3.4.3.3 0 .6-.3 1-.8V3h1.7v8.9z"><path id="d1f88a8aac6ebc62ecd721b68064a614o_2_" d="M18.3 5.9c0-1-.2-1.7-.5-2.1-.4-.6-1.2-.9-1.9-.9-.8 0-1.4.2-1.9.9-.3.5-.5 1.2-.5 2.1v3.2c0 1 .2 1.6.5 2.1.4.6 1.2.9 1.9.9s1.4-.3 1.9-.9c.3-.4.5-1.1.5-2.1V5.9zm-1.6 3.4c.1.9-.2 1.3-.7 1.3-.5 0-.8-.4-.7-1.3V5.7c-.1-.9.2-1.3.7-1.3.5 0 .8.4.7 1.3v3.6z"><path id="d1f88a8aac6ebc62ecd721b68064a614y_2_" d="M11.7 7.1V12H9.9V7.1S8.1 1.1 7.7 0h1.9l1.2 4.7L12.1 0H14l-2.3 7.1z"><path id="d1f88a8aac6ebc62ecd721b68064a614lozenge_2_" d="M28.9 17.5s-.3-1.8-1-2.6c-1-1-2.1-1.1-2.6-1.1-3.7-.3-9.2-.3-9.2-.3s-5.5 0-9.2.3c-.5.1-1.6.1-2.6 1.1-.8.8-1 2.6-1 2.6S3 19.6 3 21.8v2c0 2.1.3 4.3.3 4.3s.3 1.8 1 2.6c1 1 2.3 1 2.9 1.1 2.1.2 9 .3 9 .3s5.5 0 9.2-.3c.5-.1 1.6-.1 2.6-1.1.8-.8 1-2.6 1-2.6s.3-2.1.3-4.3v-2c-.1-2.2-.4-4.3-.4-4.3z"><path id="d1f88a8aac6ebc62ecd721b68064a614e_1_" class="st0" d="M27 24.3v-1.8c0-.9-.2-1.6-.5-2.1-.4-.6-1.1-.9-1.9-.9-.8 0-1.5.3-1.9.9-.3.4-.5 1.2-.5 2.1v3.1c0 .9.2 1.6.6 2 .5.6 1.1.9 1.9.9.8 0 1.5-.3 1.9-1 .2-.3.3-.6.4-1 0-.2.1-.5.1-1v-.2h-1.7v1.1c-.1.4-.3.6-.7.6-.5 0-.8-.4-.8-1.2v-1.6H27zM23.8 22c0-.8.2-1.1.8-1.1.5 0 .7.2.7 1.1v1h-1.5v-1z"><path id="d1f88a8aac6ebc62ecd721b68064a614b_1_" class="st0" d="M19.6 19.5c-.6 0-1.2.4-1.7 1v-3.9h-1.6v11.9h1.6v-.9c.5.7 1.1 1 1.7 1 .6 0 1.1-.3 1.3-1 .1-.4.2-1 .2-1.8v-3.5c0-.8-.1-1.4-.2-1.8-.3-.6-.7-1-1.3-1zm-.2 6.4c0 .9-.2 1.2-.7 1.2-.3 0-.6-.1-.8-.4v-5.4c.3-.3.6-.4.8-.4.5 0 .7.3.7 1.1v3.9z"><path id="d1f88a8aac6ebc62ecd721b68064a614u_1_" class="st0" d="M15 28.5h-1.7v-1c-.6.7-1.2 1.1-1.8 1.1-.5 0-.9-.2-1.1-.7-.1-.3-.2-.7-.2-1.3v-7H12v7.1c0 .2.1.3.4.3.3 0 .6-.3 1-.8v-6.7H15v9z"><path id="d1f88a8aac6ebc62ecd721b68064a614T" class="st0" d="M8.6 28.5H6.8V18.3H5v-1.7h5.5v1.7H8.6z"></g><g id="icon-society-zoomin"><style type="text/css">.st0{fill:#FFFFFF;} .st1{fill-rule:evenodd;clip-rule:evenodd;} .st2{fill:#010101;} .st3{clip-path:url(#SVGID_2_);} .st4{fill:#000006;}</style><path d="M31.9 30.3l-7.5-7.4c2.1-2.4 3.4-5.6 3.4-9C27.8 6.2 21.6 0 13.9 0S.1 6.2.1 13.8c0 7.6 6.2 13.8 13.8 13.8 3.3 0 6.3-1.2 8.7-3.1l7.5 7.4 1.8-1.6zM2.1 13.8C2.1 7.3 7.4 2 13.9 2c6.5 0 11.8 5.3 11.8 11.8 0 6.5-5.3 11.8-11.8 11.8-6.5.1-11.8-5.2-11.8-11.8zM14.9 7.5h-2.1v5.4H7.4V15h5.4v5.5h2.1V15h5.5v-2.1h-5.5z"></g><g id="icon-society-zoomout"><style type="text/css">.st0{fill:#FFFFFF;} .st1{fill-rule:evenodd;clip-rule:evenodd;} .st2{fill:#010101;} .st3{clip-path:url(#SVGID_2_);} .st4{fill:#000006;}</style><path d="M32.1 30.3l-7.5-7.4c2.1-2.4 3.4-5.6 3.4-9C28 6.2 21.8 0 14.2 0S.3 6.2.3 13.8c0 7.6 6.2 13.8 13.8 13.8 3.3 0 6.3-1.2 8.7-3.1l7.5 7.4 1.8-1.6zM2.3 13.8C2.3 7.3 7.6 2 14.2 2 20.7 2 26 7.3 26 13.8c0 6.5-5.3 11.8-11.8 11.8-6.6.1-11.9-5.2-11.9-11.8zM7.6 12.9h13V15h-13z"></g></defs></svg>